<svg id="Layer_1" data-name="Layer 1" xmlns="http://www.w3.org/2000/svg" viewBox="0 0 560.53 444.26"><g id="Group_491" data-name="Group 491"><path id="Path_355-15" data-name="Path 355-15" d="M124.94,95.85S125.23,20.67,167,43.2,141.38,105,141.38,105Z" transform="translate(-10.75 -8)" fill="#fcf6b0" stroke="#f0eca1" stroke-width="2.46"/><path id="Path_359-15" data-name="Path 359-15" d="M88,162.53S24.39,202.6,65.64,226.12s38.78-54.48,38.78-54.48Z" transform="translate(-10.75 -8)" fill="#fcf6b0" stroke="#f0eca1" stroke-width="2.46"/><path id="Path_356-15" data-name="Path 356-15" d="M142.8,106.73S188.08,47,209.38,89.4s-55.73,39.43-55.73,39.43Z" transform="translate(-10.75 -8)" fill="#fcf6b0" stroke="#f0eca1" stroke-width="2.46"/><path id="Path_361-15" data-name="Path 361-15" d="M156.23,128.66s72-21.7,62.65,24.86-68.88-.3-68.88-.3Z" transform="translate(-10.75 -8)" fill="#fcf6b0" stroke="#f0eca1" stroke-width="2.46"/><path id="Path_363-15" data-name="Path 363-15" d="M99.19,97S79.47,24.53,44.92,57.09s38.38,56.8,38.38,56.8Z" transform="translate(-10.75 -8)" fill="#fcf6b0" stroke="#f0eca1" stroke-width="2.46"/><path id="Path_362-15" data-name="Path 362-15" d="M149.83,155.25s70.56,26,35.09,57.56-49.28-45.23-49.28-45.23Z" transform="translate(-10.75 -8)" fill="#fcf6b0" stroke="#f0eca1" stroke-width="2.46"/><path id="Path_364-15" data-name="Path 364-15" d="M80,116.54s-59.41-46-67.4.76,63.58,21.6,63.58,21.6Z" transform="translate(-10.75 -8)" fill="#fcf6b0" stroke="#f0eca1" stroke-width="2.46"/><path id="Path_358-15" data-name="Path 358-15" d="M107.65,173.22S80,242,127.3,237.53s6-68.2,6-68.2Z" transform="translate(-10.75 -8)" fill="#fcf6b0" stroke="#f0eca1" stroke-width="2.46"/><path id="Path_357-15" data-name="Path 357-15" d="M122.5,96.05s29.07-69.32-18.21-64.9-3.12,67.05-3.12,67.05Z" transform="translate(-10.75 -8)" fill="#fcf6b0" stroke="#f0eca1" stroke-width="2.46"/><path id="Path_360-15" data-name="Path 360-15" d="M86.9,160.35s-43.38,61.39-64.69,19,56.46-35.85,56.46-35.85Z" transform="translate(-10.75 -8)" fill="#fcf6b0" stroke="#f0eca1" stroke-width="2.46"/><path id="Path_365-3" data-name="Path 365-3" d="M136.21,98.17a40.81,40.81,0,1,1-55.49,15.91h0A40.81,40.81,0,0,1,136.21,98.17Z" transform="translate(-10.75 -8)" fill="#f0eca1"/></g><g id="Group_494" data-name="Group 494"><path id="Path_355-17" data-name="Path 355-17" d="M240.8,257.6s.1-26.65,14.92-18.66-9.09,21.9-9.09,21.9Z" transform="translate(-10.75 -8)" fill="#fcf6b0" stroke="#f0eca1" stroke-width="0.87"/><path id="Path_359-17" data-name="Path 359-17" d="M227.69,281.25s-22.54,14.21-7.92,22.55,13.75-19.32,13.75-19.32Z" transform="translate(-10.75 -8)" fill="#fcf6b0" stroke="#f0eca1" stroke-width="0.87"/><path id="Path_356-17" data-name="Path 356-17" d="M247.13,261.46s16.06-21.19,23.61-6.14-19.76,14-19.76,14Z" transform="translate(-10.75 -8)" fill="#fcf6b0" stroke="#f0eca1" stroke-width="0.87"/><path id="Path_361-17" data-name="Path 361-17" d="M251.89,269.24s25.52-7.7,22.22,8.81-24.43-.1-24.43-.1Z" transform="translate(-10.75 -8)" fill="#fcf6b0" stroke="#f0eca1" stroke-width="0.87"/><path id="Path_363-17" data-name="Path 363-17" d="M231.67,258s-7-25.71-19.25-14.17S226,264,226,264Z" transform="translate(-10.75 -8)" fill="#fcf6b0" stroke="#f0eca1" stroke-width="0.87"/><path id="Path_362-17" data-name="Path 362-17" d="M249.63,278.67s25,9.21,12.44,20.41-17.48-16-17.48-16Z" transform="translate(-10.75 -8)" fill="#fcf6b0" stroke="#f0eca1" stroke-width="0.87"/><path id="Path_364-17" data-name="Path 364-17" d="M224.87,264.94s-21.07-16.32-23.9.27,22.54,7.66,22.54,7.66Z" transform="translate(-10.75 -8)" fill="#fcf6b0" stroke="#f0eca1" stroke-width="0.87"/><path id="Path_358-17" data-name="Path 358-17" d="M234.67,285s-9.8,24.38,7,22.8,2.12-24.18,2.12-24.18Z" transform="translate(-10.75 -8)" fill="#fcf6b0" stroke="#f0eca1" stroke-width="0.87"/><path id="Path_357-17" data-name="Path 357-17" d="M239.93,257.68s10.31-24.58-6.45-23-1.11,23.78-1.11,23.78Z" transform="translate(-10.75 -8)" fill="#fcf6b0" stroke="#f0eca1" stroke-width="0.87"/><path id="Path_360-17" data-name="Path 360-17" d="M227.31,280.47s-15.38,21.77-22.94,6.73,20-12.72,20-12.72Z" transform="translate(-10.75 -8)" fill="#fcf6b0" stroke="#f0eca1" stroke-width="0.87"/><path id="Path_365-5" data-name="Path 365-5" d="M244.79,258.43a14.47,14.47,0,1,1-19.67,5.64h0A14.46,14.46,0,0,1,244.79,258.43Z" transform="translate(-10.75 -8)" fill="#f0eca1"/></g><g id="Group_494-2" data-name="Group 494"><path id="Path_355-17-2" data-name="Path 355-17" d="M464.19,39.56s.12-31.34,17.55-22S471,43.36,471,43.36Z" transform="translate(-10.75 -8)" fill="#fcf6b0" stroke="#f0eca1" stroke-width="1.03"/><path id="Path_359-17-2" data-name="Path 359-17" d="M448.78,67.36s-26.51,16.71-9.31,26.51,16.16-22.71,16.16-22.71Z" transform="translate(-10.75 -8)" fill="#fcf6b0" stroke="#f0eca1" stroke-width="1.03"/><path id="Path_356-17-2" data-name="Path 356-17" d="M471.64,44.1s18.87-24.93,27.75-7.23-23.23,16.44-23.23,16.44Z" transform="translate(-10.75 -8)" fill="#fcf6b0" stroke="#f0eca1" stroke-width="1.03"/><path id="Path_361-17-2" data-name="Path 361-17" d="M477.23,53.24s30-9.05,26.13,10.36-28.72-.12-28.72-.12Z" transform="translate(-10.75 -8)" fill="#fcf6b0" stroke="#f0eca1" stroke-width="1.03"/><path id="Path_363-17-2" data-name="Path 363-17" d="M453.45,40.05S445.23,9.82,430.82,23.4s16,23.68,16,23.68Z" transform="translate(-10.75 -8)" fill="#fcf6b0" stroke="#f0eca1" stroke-width="1.03"/><path id="Path_362-17-2" data-name="Path 362-17" d="M474.57,64.32s29.42,10.84,14.63,24-20.55-18.86-20.55-18.86Z" transform="translate(-10.75 -8)" fill="#fcf6b0" stroke="#f0eca1" stroke-width="1.03"/><path id="Path_364-17-2" data-name="Path 364-17" d="M445.45,48.19s-24.76-19.2-28.1.31,26.51,9,26.51,9Z" transform="translate(-10.75 -8)" fill="#fcf6b0" stroke="#f0eca1" stroke-width="1.03"/><path id="Path_358-17-2" data-name="Path 358-17" d="M457,71.82s-11.52,28.66,8.2,26.81,2.49-28.43,2.49-28.43Z" transform="translate(-10.75 -8)" fill="#fcf6b0" stroke="#f0eca1" stroke-width="1.03"/><path id="Path_357-17-2" data-name="Path 357-17" d="M463.17,39.64s12.12-28.9-7.59-27.06-1.3,28-1.3,28Z" transform="translate(-10.75 -8)" fill="#fcf6b0" stroke="#f0eca1" stroke-width="1.03"/><path id="Path_360-17-2" data-name="Path 360-17" d="M448.33,66.45s-18.09,25.6-27,7.9S444.9,59.4,444.9,59.4Z" transform="translate(-10.75 -8)" fill="#fcf6b0" stroke="#f0eca1" stroke-width="1.03"/><path id="Path_365-5-2" data-name="Path 365-5" d="M468.89,40.53a17,17,0,1,1-23.14,6.63h0A17,17,0,0,1,468.89,40.53Z" transform="translate(-10.75 -8)" fill="#f0eca1"/></g><g id="Group_510" data-name="Group 510"><path id="Path_355-29" data-name="Path 355-29" d="M288.19,34.6s.12-30.13,16.87-21.1-10.27,24.76-10.27,24.76Z" transform="translate(-10.75 -8)" fill="#c7e7dd" stroke="#b3ded0" stroke-width="1.19"/><path id="Path_359-29" data-name="Path 359-29" d="M273.37,61.33s-25.48,16.07-8.95,25.49S280,65,280,65Z" transform="translate(-10.75 -8)" fill="#c7e7dd" stroke="#b3ded0" stroke-width="1.19"/><path id="Path_356-29" data-name="Path 356-29" d="M295.35,39S313.5,15,322,32,299.7,47.83,299.7,47.83Z" transform="translate(-10.75 -8)" fill="#c7e7dd" stroke="#b3ded0" stroke-width="1.19"/><path id="Path_361-29" data-name="Path 361-29" d="M300.74,47.76s28.84-8.7,25.1,10-27.6-.11-27.6-.11Z" transform="translate(-10.75 -8)" fill="#c7e7dd" stroke="#b3ded0" stroke-width="1.19"/><path id="Path_363-29" data-name="Path 363-29" d="M277.87,35.08S270,6,256.11,19.07,271.5,41.84,271.5,41.84Z" transform="translate(-10.75 -8)" fill="#c7e7dd" stroke="#b3ded0" stroke-width="1.19"/><path id="Path_362-29" data-name="Path 362-29" d="M298.17,58.42s28.28,10.41,14.06,23.07-19.75-18.12-19.75-18.12Z" transform="translate(-10.75 -8)" fill="#c7e7dd" stroke="#b3ded0" stroke-width="1.19"/><path id="Path_364-29" data-name="Path 364-29" d="M270.18,42.9s-23.81-18.45-27,.31,25.48,8.65,25.48,8.65Z" transform="translate(-10.75 -8)" fill="#c7e7dd" stroke="#b3ded0" stroke-width="1.19"/><path id="Path_358-29" data-name="Path 358-29" d="M281.26,65.63s-11.08,27.55,7.87,25.77,2.41-27.34,2.41-27.34Z" transform="translate(-10.75 -8)" fill="#c7e7dd" stroke="#b3ded0" stroke-width="1.19"/><path id="Path_357-29" data-name="Path 357-29" d="M287.21,34.69s11.65-27.79-7.3-26-1.25,26.87-1.25,26.87Z" transform="translate(-10.75 -8)" fill="#c7e7dd" stroke="#b3ded0" stroke-width="1.19"/><path id="Path_360-29" data-name="Path 360-29" d="M272.94,60.46S255.55,85.07,247,68.06s22.62-14.38,22.62-14.38Z" transform="translate(-10.75 -8)" fill="#c7e7dd" stroke="#b3ded0" stroke-width="1.19"/><path id="Path_365-15" data-name="Path 365-15" d="M292.71,35.54a16.36,16.36,0,1,1-22.24,6.38h0A16.35,16.35,0,0,1,292.71,35.54Z" transform="translate(-10.75 -8)" fill="#b3ded0"/></g><g id="Group_510-2" data-name="Group 510"><path id="Path_355-29-2" data-name="Path 355-29" d="M532.7,231.07S532.82,201,549.57,210s-10.27,24.75-10.27,24.75Z" transform="translate(-10.75 -8)" fill="#c7e7dd" stroke="#b3ded0" stroke-width="1.19"/><path id="Path_359-29-2" data-name="Path 359-29" d="M517.89,257.81s-25.49,16.06-8.95,25.48,15.54-21.83,15.54-21.83Z" transform="translate(-10.75 -8)" fill="#c7e7dd" stroke="#b3ded0" stroke-width="1.19"/><path id="Path_356-29-2" data-name="Path 356-29" d="M539.86,235.45s18.15-24,26.69-6.95-22.34,15.8-22.34,15.8Z" transform="translate(-10.75 -8)" fill="#c7e7dd" stroke="#b3ded0" stroke-width="1.19"/><path id="Path_361-29-2" data-name="Path 361-29" d="M545.25,244.23s28.84-8.69,25.11,10-27.61-.12-27.61-.12Z" transform="translate(-10.75 -8)" fill="#c7e7dd" stroke="#b3ded0" stroke-width="1.19"/><path id="Path_363-29-2" data-name="Path 363-29" d="M522.38,231.56s-7.91-29.07-21.75-16S516,238.32,516,238.32Z" transform="translate(-10.75 -8)" fill="#c7e7dd" stroke="#b3ded0" stroke-width="1.19"/><path id="Path_362-29-2" data-name="Path 362-29" d="M542.69,254.89S571,265.3,556.75,278,537,259.85,537,259.85Z" transform="translate(-10.75 -8)" fill="#c7e7dd" stroke="#b3ded0" stroke-width="1.19"/><path id="Path_364-29-2" data-name="Path 364-29" d="M514.69,239.38s-23.81-18.46-27,.3,25.48,8.66,25.48,8.66Z" transform="translate(-10.75 -8)" fill="#c7e7dd" stroke="#b3ded0" stroke-width="1.19"/><path id="Path_358-29-2" data-name="Path 358-29" d="M525.77,262.1s-11.07,27.56,7.88,25.78,2.4-27.35,2.4-27.35Z" transform="translate(-10.75 -8)" fill="#c7e7dd" stroke="#b3ded0" stroke-width="1.19"/><path id="Path_357-29-2" data-name="Path 357-29" d="M531.72,231.16s11.66-27.78-7.29-26S523.17,232,523.17,232Z" transform="translate(-10.75 -8)" fill="#c7e7dd" stroke="#b3ded0" stroke-width="1.19"/><path id="Path_360-29-2" data-name="Path 360-29" d="M517.45,256.94s-17.39,24.61-25.92,7.59,22.61-14.37,22.61-14.37Z" transform="translate(-10.75 -8)" fill="#c7e7dd" stroke="#b3ded0" stroke-width="1.19"/><path id="Path_365-15-2" data-name="Path 365-15" d="M537.22,232A16.36,16.36,0,1,1,515,238.39h0A16.36,16.36,0,0,1,537.22,232Z" transform="translate(-10.75 -8)" fill="#b3ded0"/></g><g id="Group_510-3" data-name="Group 510"><path id="Path_355-29-3" data-name="Path 355-29" d="M370.16,350.77s.2-50.42,28.24-35.31-17.19,41.43-17.19,41.43Z" transform="translate(-10.75 -8)" fill="#c7e7dd" stroke="#b3ded0" stroke-width="1.99"/><path id="Path_359-29-3" data-name="Path 359-29" d="M345.37,395.51s-42.66,26.89-15,42.65,26-36.53,26-36.53Z" transform="translate(-10.75 -8)" fill="#c7e7dd" stroke="#b3ded0" stroke-width="1.99"/><path id="Path_356-29-3" data-name="Path 356-29" d="M382.14,358.09s30.38-40.1,44.67-11.63-37.39,26.45-37.39,26.45Z" transform="translate(-10.75 -8)" fill="#c7e7dd" stroke="#b3ded0" stroke-width="1.99"/><path id="Path_361-29-3" data-name="Path 361-29" d="M391.16,372.8s48.27-14.56,42,16.67-46.2-.19-46.2-.19Z" transform="translate(-10.75 -8)" fill="#c7e7dd" stroke="#b3ded0" stroke-width="1.99"/><path id="Path_363-29-3" data-name="Path 363-29" d="M352.88,351.58s-13.23-48.65-36.4-26.8,25.75,38.11,25.75,38.11Z" transform="translate(-10.75 -8)" fill="#c7e7dd" stroke="#b3ded0" stroke-width="1.99"/><path id="Path_362-29-3" data-name="Path 362-29" d="M386.87,390.64s47.33,17.42,23.54,38.61-33.07-30.32-33.07-30.32Z" transform="translate(-10.75 -8)" fill="#c7e7dd" stroke="#b3ded0" stroke-width="1.99"/><path id="Path_364-29-3" data-name="Path 364-29" d="M340,364.66s-39.85-30.88-45.2.51,42.64,14.5,42.64,14.5Z" transform="translate(-10.75 -8)" fill="#c7e7dd" stroke="#b3ded0" stroke-width="1.99"/><path id="Path_358-29-3" data-name="Path 358-29" d="M358.56,402.7S340,448.82,371.74,445.84s4-45.76,4-45.76Z" transform="translate(-10.75 -8)" fill="#c7e7dd" stroke="#b3ded0" stroke-width="1.99"/><path id="Path_357-29-3" data-name="Path 357-29" d="M368.52,350.92s19.51-46.5-12.21-43.53-2.1,45-2.1,45Z" transform="translate(-10.75 -8)" fill="#c7e7dd" stroke="#b3ded0" stroke-width="1.99"/><path id="Path_360-29-3" data-name="Path 360-29" d="M344.63,394.06s-29.09,41.18-43.38,12.71,37.85-24.06,37.85-24.06Z" transform="translate(-10.75 -8)" fill="#c7e7dd" stroke="#b3ded0" stroke-width="1.99"/><path id="Path_365-15-3" data-name="Path 365-15" d="M377.72,352.34A27.38,27.38,0,1,1,340.5,363h0A27.38,27.38,0,0,1,377.72,352.34Z" transform="translate(-10.75 -8)" fill="#b3ded0"/></g><g id="Group_521" data-name="Group 521"><path id="Path_355-34" data-name="Path 355-34" d="M370.17,163.69s.19-47.35,26.52-33.16-16.16,38.9-16.16,38.9Z" transform="translate(-10.75 -8)" fill="#d3def1" stroke="#b3c5e6" stroke-width="1.55"/><path id="Path_359-34" data-name="Path 359-34" d="M346.89,205.7s-40.05,25.24-14.07,40.05,24.43-34.31,24.43-34.31Z" transform="translate(-10.75 -8)" fill="#d3def1" stroke="#b3c5e6" stroke-width="1.55"/><path id="Path_356-34" data-name="Path 356-34" d="M381.43,170.55S410,132.9,423.36,159.63s-35.1,24.84-35.1,24.84Z" transform="translate(-10.75 -8)" fill="#d3def1" stroke="#b3c5e6" stroke-width="1.55"/><path id="Path_361-34" data-name="Path 361-34" d="M389.88,184.36s45.34-13.67,39.47,15.66-43.39-.18-43.39-.18Z" transform="translate(-10.75 -8)" fill="#d3def1" stroke="#b3c5e6" stroke-width="1.55"/><path id="Path_363-34" data-name="Path 363-34" d="M354,164.44s-12.42-45.67-34.18-25.16S344,175.06,344,175.06Z" transform="translate(-10.75 -8)" fill="#d3def1" stroke="#b3c5e6" stroke-width="1.55"/><path id="Path_362-34" data-name="Path 362-34" d="M385.86,201.11s44.44,16.37,22.1,36.26-31-28.49-31-28.49Z" transform="translate(-10.75 -8)" fill="#d3def1" stroke="#b3c5e6" stroke-width="1.55"/><path id="Path_364-34" data-name="Path 364-34" d="M341.87,176.73s-37.42-29-42.45.48,40.05,13.6,40.05,13.6Z" transform="translate(-10.75 -8)" fill="#d3def1" stroke="#b3c5e6" stroke-width="1.55"/><path id="Path_358-34" data-name="Path 358-34" d="M359.28,212.43s-17.4,43.31,12.38,40.51,3.78-43,3.78-43Z" transform="translate(-10.75 -8)" fill="#d3def1" stroke="#b3c5e6" stroke-width="1.55"/><path id="Path_357-34" data-name="Path 357-34" d="M368.64,163.82s18.31-43.66-11.47-40.88-2,42.23-2,42.23Z" transform="translate(-10.75 -8)" fill="#d3def1" stroke="#b3c5e6" stroke-width="1.55"/><path id="Path_360-34" data-name="Path 360-34" d="M346.22,204.32S318.89,243,305.47,216.26,341,193.68,341,193.68Z" transform="translate(-10.75 -8)" fill="#d3def1" stroke="#b3c5e6" stroke-width="1.55"/><path id="Path_365-20" data-name="Path 365-20" d="M377.27,165.16a25.71,25.71,0,1,1-34.95,10h0A25.7,25.7,0,0,1,377.27,165.16Z" transform="translate(-10.75 -8)" fill="#b3c5e6"/></g><g id="Group_521-2" data-name="Group 521"><path id="Path_355-34-2" data-name="Path 355-34" d="M110.17,362.11s.19-47.35,26.52-33.17-16.16,38.91-16.16,38.91Z" transform="translate(-10.75 -8)" fill="#d3def1" stroke="#b3c5e6" stroke-width="1.55"/><path id="Path_359-34-2" data-name="Path 359-34" d="M86.89,404.11s-40,25.24-14.07,40.06,24.43-34.32,24.43-34.32Z" transform="translate(-10.75 -8)" fill="#d3def1" stroke="#b3c5e6" stroke-width="1.55"/><path id="Path_356-34-2" data-name="Path 356-34" d="M121.43,369S150,331.31,163.36,358s-35.1,24.85-35.1,24.85Z" transform="translate(-10.75 -8)" fill="#d3def1" stroke="#b3c5e6" stroke-width="1.55"/><path id="Path_361-34-2" data-name="Path 361-34" d="M129.88,382.78s45.34-13.67,39.47,15.65-43.39-.18-43.39-.18Z" transform="translate(-10.75 -8)" fill="#d3def1" stroke="#b3c5e6" stroke-width="1.55"/><path id="Path_363-34-2" data-name="Path 363-34" d="M94,362.86S81.54,317.18,59.77,337.7,84,373.48,84,373.48Z" transform="translate(-10.75 -8)" fill="#d3def1" stroke="#b3c5e6" stroke-width="1.55"/><path id="Path_362-34-2" data-name="Path 362-34" d="M125.86,399.52s44.44,16.37,22.1,36.27-31-28.49-31-28.49Z" transform="translate(-10.75 -8)" fill="#d3def1" stroke="#b3c5e6" stroke-width="1.55"/><path id="Path_364-34-2" data-name="Path 364-34" d="M81.87,375.14s-37.42-29-42.45.48,40.05,13.61,40.05,13.61Z" transform="translate(-10.75 -8)" fill="#d3def1" stroke="#b3c5e6" stroke-width="1.55"/><path id="Path_358-34-2" data-name="Path 358-34" d="M99.28,410.84s-17.4,43.31,12.38,40.52,3.78-43,3.78-43Z" transform="translate(-10.75 -8)" fill="#d3def1" stroke="#b3c5e6" stroke-width="1.55"/><path id="Path_357-34-2" data-name="Path 357-34" d="M108.64,362.24S127,318.57,97.17,321.35s-2,42.24-2,42.24Z" transform="translate(-10.75 -8)" fill="#d3def1" stroke="#b3c5e6" stroke-width="1.55"/><path id="Path_360-34-2" data-name="Path 360-34" d="M86.22,402.74s-27.33,38.67-40.75,11.94S81,392.09,81,392.09Z" transform="translate(-10.75 -8)" fill="#d3def1" stroke="#b3c5e6" stroke-width="1.55"/><path id="Path_365-20-2" data-name="Path 365-20" d="M117.27,363.57a25.71,25.71,0,1,1-34.95,10h0A25.71,25.71,0,0,1,117.27,363.57Z" transform="translate(-10.75 -8)" fill="#b3c5e6"/></g></svg>