<svg id="Layer_1" data-name="Layer 1" xmlns="http://www.w3.org/2000/svg" viewBox="0 0 119.85 128.44"><path id="Path_515" data-name="Path 515" d="M78,38C79.5,51.55,65.42,59.16,51.78,59.16A24.68,24.68,0,0,1,27.1,34.47c0-13.63,7.93-21.15,21.38-23.8C64.92,7.44,76.47,23.9,78,38Z" fill="#c7e7dd" stroke="#e2f2ed" stroke-miterlimit="10" stroke-width="0.79"/><path id="Path_516" data-name="Path 516" d="M106.82,44.43c1.77,16.18-15,25.26-31.31,25.26A29.48,29.48,0,0,1,46,40.22h0C46,23.94,55.51,15,71.56,11.8,91.18,7.94,105,27.59,106.82,44.43Z" fill="#0076a6" stroke="#038cb7" stroke-miterlimit="10" stroke-width="0.79"/><path id="Path_517" data-name="Path 517" d="M81.3,52.58c3,.73,9.11.31,11.84.79,3,.54,6.63,1,9-.89,1.53-1.23,2.13-3.26,2.49-5.18.65-3.52.63-7.55-1.75-10.22-2.78-3.1-8.14-3-11.24-.23s-3.92,7.57-2.54,11.5" fill="#0076a6"/><path id="Path_529" data-name="Path 529" d="M64,52.36a9.67,9.67,0,0,1,4.38-3.84.4.4,0,0,0-.4-.69A10.63,10.63,0,0,0,63.28,52a.4.4,0,0,0,.69.4Z" fill="#fcd164"/><g id="Group_880" data-name="Group 880"><path id="Path_518" data-name="Path 518" d="M48.65,28.49c6-.69,12.58-1.45,18.3,1.09C72.3,32,76,36.86,78.28,42.07a68.08,68.08,0,0,1,3.44,10.52.4.4,0,0,0,.77-.21c-1.62-6.17-3.54-12.45-7.6-17.49a21,21,0,0,0-6.56-5.52,22.07,22.07,0,0,0-8.91-2.26,62.59,62.59,0,0,0-10.77.59c-.5.06-.51.85,0,.79Z" fill="#138cb7"/><path id="Path_519" data-name="Path 519" d="M50.92,31.84c6.25.56,11.84,3.66,17.1,6.87,2.7,1.64,5.37,3.35,8.14,4.88s5.63,2.75,8.46,4.08a27.88,27.88,0,0,1,8.66,5.73c.35.37.9-.19.55-.56C89.42,48.17,83,46.36,77.5,43.42s-10.77-6.83-16.56-9.51a30.24,30.24,0,0,0-10-2.86C50.41,31,50.42,31.8,50.92,31.84Z" fill="#138cb7"/><path id="Path_520" data-name="Path 520" d="M53.68,35.23c2.61.25,4.87,1.75,7,3.09q3.54,2.19,7.2,4.16a136.3,136.3,0,0,0,15,7c2.6,1,5.39,1.91,7.44,3.89.37.35.93-.2.56-.56a18.68,18.68,0,0,0-6.55-3.61c-2.61-1-5.2-2.07-7.75-3.22A137.05,137.05,0,0,1,61.74,38c-2.51-1.54-5-3.28-8.06-3.58-.5,0-.5.74,0,.79Z" fill="#138cb7"/><path id="Path_521" data-name="Path 521" d="M54.08,38a11.36,11.36,0,0,1,6.46,1.85c2,1.19,3.91,2.63,6,3.81,4.23,2.45,8.92,3.95,13.39,5.88a39.39,39.39,0,0,1,7.2,3.89c.42.29.81-.4.4-.69-4-2.84-8.73-4.51-13.29-6.35a60.85,60.85,0,0,1-6.72-3.08c-2.11-1.17-4-2.62-6.08-3.87a12.65,12.65,0,0,0-7.31-2.23c-.51,0-.51.83,0,.79Z" fill="#138cb7"/><path id="Path_522" data-name="Path 522" d="M57.72,33.06a14.66,14.66,0,0,1,6.11.48,8,8,0,0,1,3.86,3.31,14.33,14.33,0,0,1,1.89,4.92c.36,1.78.52,3.59.9,5.37A10.83,10.83,0,0,0,73,52.46c.35.37.91-.19.56-.56C71,49.18,71,45.06,70.35,41.61s-2.38-7-5.65-8.55c-2.18-1-4.64-1-7-.79-.5,0-.51.83,0,.79Z" fill="#138cb7"/><path id="Path_523" data-name="Path 523" d="M50.74,30.26c4.67-.44,9.78-.86,14.21,1a13,13,0,0,1,5.55,4.64c.76,1.08,1.43,2.22,2.09,3.37q1.17,2,2.33,4l5.2,9a.4.4,0,0,0,.69-.4l-4.74-8.18L73.7,39.63c-.7-1.19-1.38-2.4-2.14-3.55a14.52,14.52,0,0,0-5.5-5.14,18.55,18.55,0,0,0-7-1.74,50.9,50.9,0,0,0-8.37.27c-.5.05-.5.84,0,.79Z" fill="#138cb7"/><path id="Path_524" data-name="Path 524" d="M54.54,39.85c3.44-.1,6.42,1.92,9,3.94,1.34,1,2.67,2.09,4.09,3s2.76,1.67,4.14,2.51a26,26,0,0,1,4.32,3.18c.37.35.93-.2.56-.55-2.4-2.28-5.37-3.77-8.14-5.52-2.94-1.85-5.45-4.37-8.55-6a11.37,11.37,0,0,0-5.46-1.4c-.51,0-.51.81,0,.79Z" fill="#138cb7"/><path id="Path_525" data-name="Path 525" d="M50.82,52.68a7.34,7.34,0,0,0,4.53-3.13,12.32,12.32,0,0,0,2.27-8.83.41.41,0,0,0-.4-.39.38.38,0,0,0-.39.39,11.29,11.29,0,0,1-3.58,10,5.53,5.53,0,0,1-2.64,1.25c-.5.08-.29.84.21.76Z" fill="#138cb7"/><path id="Path_526" data-name="Path 526" d="M59.37,41.26a12.45,12.45,0,0,1-3.6,11.11c-.37.35.19.91.56.56a13.26,13.26,0,0,0,3.8-11.88c-.09-.5-.85-.29-.76.21Z" fill="#138cb7"/><path id="Path_527" data-name="Path 527" d="M58.35,52.88c1.82-.21,2.89-2,3.55-3.57a11.52,11.52,0,0,0,.89-5.62c0-.5-.84-.51-.79,0a10.86,10.86,0,0,1-.69,5,9.66,9.66,0,0,1-1.18,2.16,2.78,2.78,0,0,1-1.78,1.23c-.49.06-.5.85,0,.79Z" fill="#138cb7"/><path id="Path_528" data-name="Path 528" d="M62.2,52.7a6.31,6.31,0,0,1,1.64-3.42,18.08,18.08,0,0,1,2.87-2.37c.41-.3,0-1-.4-.68a18,18,0,0,0-3.09,2.56,7.11,7.11,0,0,0-1.79,3.7.41.41,0,0,0,.28.49.41.41,0,0,0,.49-.28Z" fill="#138cb7"/><path id="Path_530" data-name="Path 530" d="M66.54,52.57a12.84,12.84,0,0,0,4-2.4.39.39,0,0,0,0-.55.4.4,0,0,0-.56,0,11.79,11.79,0,0,1-3.69,2.19.39.39,0,1,0,.21.76Z" fill="#138cb7"/><path id="Path_531" data-name="Path 531" d="M48.64,28c2.18-2.11,3.86-4.65,5.87-6.91a17.75,17.75,0,0,1,3.27-3,13,13,0,0,1,3.53-1.66,14.61,14.61,0,0,1,7.76-.18,13.83,13.83,0,0,1,6.78,4,15.44,15.44,0,0,0,3.87,3.52,4.71,4.71,0,0,0,4.65.12c.43-.27,0-1-.4-.69A4,4,0,0,1,79.85,23a16.81,16.81,0,0,1-3.45-3.24,14.39,14.39,0,0,0-6.85-4.11,15.58,15.58,0,0,0-7.82-.07,14.85,14.85,0,0,0-7,4.16c-2.39,2.45-4.2,5.38-6.66,7.76-.37.35.19.91.55.56Z" fill="#138cb7"/><path id="Path_532" data-name="Path 532" d="M65.59,13.9a19.63,19.63,0,0,1,5.13.35A8.89,8.89,0,0,1,75,16.15c1.08,1,2,2.13,3.06,3.05a12.61,12.61,0,0,0,3.73,2.14,12,12,0,0,0,2.42.59,1.71,1.71,0,0,0,1.77-.6c.28-.43-.41-.82-.68-.4s-1.21.2-1.63.11a11.41,11.41,0,0,1-5.54-2.83c-1-.94-1.86-2.06-2.94-2.93a9.61,9.61,0,0,0-4.08-1.75,20.07,20.07,0,0,0-5.52-.42c-.51,0-.51.82,0,.79Z" fill="#138cb7"/><path id="Path_533" data-name="Path 533" d="M74.3,11.89c2.78-.14,5.12,1.72,6.71,3.84a41,41,0,0,1,2.21,3.49,7.67,7.67,0,0,0,2.55,2.84,3.54,3.54,0,0,0,3.78,0c.41-.3,0-1-.4-.69a2.82,2.82,0,0,1-3.23-.16,8.56,8.56,0,0,1-2.35-2.95c-1.33-2.29-2.81-4.62-5.13-6A7.32,7.32,0,0,0,74.3,11.1c-.51,0-.51.82,0,.79Z" fill="#138cb7"/><path id="Path_534" data-name="Path 534" d="M80.7,12.2a127.43,127.43,0,0,1,8.72,9.58c.32.4.88-.16.56-.55a127.58,127.58,0,0,0-8.72-9.59.4.4,0,0,0-.56.56Z" fill="#138cb7"/><path id="Path_535" data-name="Path 535" d="M86.1,13.64c2.56,2.22,5.44,4.77,6.07,8.28a3.77,3.77,0,0,1-.43,2.81,7.42,7.42,0,0,1-1.64,1.62,29,29,0,0,1-3.4,2.41,14.06,14.06,0,0,1-2.15,1.1,4,4,0,0,1-1.8.36c-.51,0-.51.74,0,.79a7.12,7.12,0,0,0,3.81-1.25,29.24,29.24,0,0,0,3.81-2.62A11.25,11.25,0,0,0,92,25.64a4.11,4.11,0,0,0,1-2.82,9.26,9.26,0,0,0-1.92-5.15,27.67,27.67,0,0,0-4.46-4.59c-.39-.33-1,.23-.56.56Z" fill="#138cb7"/><path id="Path_536" data-name="Path 536" d="M86.13,30.47A17.62,17.62,0,0,0,90,29.39a6.92,6.92,0,0,0,2.87-2.32,8,8,0,0,0,.87-7.15,11,11,0,0,0-2.29-3.78c-.35-.37-.9.19-.56.56a8.92,8.92,0,0,1,2.52,6.46,6.42,6.42,0,0,1-3.51,5.41,16,16,0,0,1-4,1.14c-.5.1-.29.86.21.76Z" fill="#138cb7"/><path id="Path_537" data-name="Path 537" d="M71.34,32.17l8.7-.8c1.43-.13,2.86-.28,4.3-.39a17.69,17.69,0,0,1,4.24.1A20.94,20.94,0,0,1,95.49,34c1.07.62,2.14,1.26,3.25,1.85s2.28,1.13,3.37,1.78c2.15,1.29,4.44,3.61,3.74,6.37-.12.49.64.7.76.21.62-2.43-.81-4.81-2.67-6.28a19.48,19.48,0,0,0-3.34-2c-1.18-.6-2.34-1.22-3.49-1.89a30.78,30.78,0,0,0-7-3.37c-2.81-.78-5.71-.43-8.57-.17l-10.19.95c-.5,0-.51.83,0,.79Z" fill="#138cb7"/><path id="Path_538" data-name="Path 538" d="M74.67,34.41a32.55,32.55,0,0,1,14.41,1.13,32.9,32.9,0,0,1,12.57,7.18,19.34,19.34,0,0,1,2.89,3.17,5.77,5.77,0,0,1,1.19,4c-.08.49.68.71.76.21.44-2.77-1.42-5.14-3.25-7a32.55,32.55,0,0,0-6-4.75A34.41,34.41,0,0,0,83,33.48a32.63,32.63,0,0,0-8.55.17c-.5.07-.29.83.21.76Z" fill="#138cb7"/><path id="Path_539" data-name="Path 539" d="M79.94,42.38a8.8,8.8,0,0,1,4.75,1.09c1.27.57,2.53,1.18,3.75,1.83a26.44,26.44,0,0,1,6.61,4.78,15.65,15.65,0,0,1,2.63,3.63c.23.46.92.06.68-.39-2.67-5.16-8-8.14-13.11-10.46a9.93,9.93,0,0,0-5.52-1.24c-.5.08-.29.84.21.76Z" fill="#138cb7"/><path id="Path_540" data-name="Path 540" d="M75,35.37A51.17,51.17,0,0,1,83,37c1.3.35,2.59.74,3.88,1.13s2.55.75,3.79,1.2a15,15,0,0,1,5.9,3.84,18.86,18.86,0,0,1,3.67,5.91,35.12,35.12,0,0,1,2.06,8.64c.07.49.86.5.79,0-.65-5.1-1.94-10.28-5.27-14.33a15.21,15.21,0,0,0-5.72-4.33,35.1,35.1,0,0,0-3.81-1.33c-1.35-.41-2.69-.82-4-1.21a57.9,57.9,0,0,0-9.29-2c-.5,0-.5.74,0,.79Z" fill="#138cb7"/><path id="Path_541" data-name="Path 541" d="M77.49,39A12.77,12.77,0,0,1,82.86,40,34.46,34.46,0,0,1,87.53,42a17.43,17.43,0,0,1,7.14,6.28,11.64,11.64,0,0,1,1.65,4.82c0,.5.83.51.78,0a13.54,13.54,0,0,0-4.36-8.44,25,25,0,0,0-9-5.12c-2-.69-4.11-1.53-6.23-1.3-.5.05-.5.84,0,.79Z" fill="#138cb7"/><path id="Path_542" data-name="Path 542" d="M77.5,38.17a21.6,21.6,0,0,1,12.18,2.56,21,21,0,0,1,5.06,3.83,29.49,29.49,0,0,1,4,5.3c1.31,2.15,2.43,4.4,3.54,6.66.22.45.9,0,.68-.4-2-4.08-4.08-8.21-7.16-11.59a22.37,22.37,0,0,0-11-6.56,21.93,21.93,0,0,0-7.26-.59c-.51,0-.51.83,0,.79Z" fill="#138cb7"/><path id="Path_543" data-name="Path 543" d="M74.21,33.57a37.14,37.14,0,0,1,14.16.88,38.54,38.54,0,0,1,12.86,6A35.62,35.62,0,0,1,104.32,43c.9.82,2.29,1.88,2.11,3.25a.39.39,0,0,0,.4.4.41.41,0,0,0,.39-.4c.17-1.29-.79-2.34-1.65-3.17s-1.81-1.64-2.77-2.39a38.48,38.48,0,0,0-6.26-4,39.32,39.32,0,0,0-14.19-4.07,37.62,37.62,0,0,0-8.35.19.39.39,0,0,0,.21.76Z" fill="#138cb7"/><path id="Path_544" data-name="Path 544" d="M84,24.44l5.46-2.09c.47-.18.27-.94-.21-.76l-5.46,2.09c-.47.18-.27.94.21.76Z" fill="#138cb7"/><path id="Path_545" data-name="Path 545" d="M88.75,22.25a4.1,4.1,0,0,1,3.87,2.1c.25.45.93,0,.68-.4a4.89,4.89,0,0,0-4.55-2.49.41.41,0,0,0-.4.39.4.4,0,0,0,.4.4Z" fill="#138cb7"/><path id="Path_546" data-name="Path 546" d="M92.55,25.66a7.83,7.83,0,0,0-5.07-2.05,7.62,7.62,0,0,0-6.83,4.09c-.23.45.45.85.68.39a6.76,6.76,0,0,1,9.1-3A6.53,6.53,0,0,1,92,26.22c.37.34.93-.21.56-.56Z" fill="#138cb7"/><path id="Path_547" data-name="Path 547" d="M89.82,27.54a18.85,18.85,0,0,0-6.74,0,7.29,7.29,0,0,0-4.52,3c-.28.43.41.82.68.4a6.6,6.6,0,0,1,4.25-2.67,19.22,19.22,0,0,1,6.33.11c.5.06.49-.73,0-.79Z" fill="#138cb7"/><path id="Path_548" data-name="Path 548" d="M69.31,16a11.82,11.82,0,0,0-8,1.27,18.21,18.21,0,0,0-6.09,5.62,35.39,35.39,0,0,0-2.46,4c-.23.45.45.85.68.4,2.45-4.62,5.91-9.26,11.28-10.51a9.86,9.86,0,0,1,4.39-.06c.49.11.7-.65.21-.76Z" fill="#138cb7"/><path id="Path_549" data-name="Path 549" d="M72.36,30.94a8.5,8.5,0,0,1-1.71-7.56.4.4,0,0,0-.77-.21,9.31,9.31,0,0,0,1.93,8.33c.33.39.88-.17.55-.56Z" fill="#138cb7"/><path id="Path_550" data-name="Path 550" d="M69.27,29.52a4.56,4.56,0,0,1,.4-3.47c.68-1.2,1.89-1.74,2.91-2.6.38-.33-.18-.88-.56-.56-.59.5-1.27.87-1.86,1.36a5.05,5.05,0,0,0-1.26,1.57,5.36,5.36,0,0,0-.39,3.91.39.39,0,0,0,.76-.21Z" fill="#138cb7"/><path id="Path_551" data-name="Path 551" d="M73.11,22.78a8.31,8.31,0,0,0-6.1,1,19,19,0,0,0-2.54,2.12,3.83,3.83,0,0,1-3,1.21c-.49-.08-.71.68-.21.76a4.1,4.1,0,0,0,3.1-.85c.91-.66,1.64-1.53,2.54-2.2a7.54,7.54,0,0,1,6-1.29c.49.11.71-.66.21-.76Z" fill="#138cb7"/><path id="Path_552" data-name="Path 552" d="M72.59,22.76a26.13,26.13,0,0,0-6.25,0,10.74,10.74,0,0,0-2.87.89c-.84.41-1.62.92-2.43,1.39a7.93,7.93,0,0,1-2.91,1.17.4.4,0,0,0-.39.39.39.39,0,0,0,.39.4c1.9-.25,3.41-1.39,5-2.3A11.92,11.92,0,0,1,69,23.38c1.2,0,2.39.08,3.59.17.5,0,.5-.75,0-.79Z" fill="#138cb7"/><path id="Path_553" data-name="Path 553" d="M72.76,23.16c-.39-1.27-1.8-1.63-3-1.84a33.09,33.09,0,0,0-4.44-.58,12.42,12.42,0,0,0-4.41.47,9.25,9.25,0,0,0-3.62,2.23,34.19,34.19,0,0,1-3.54,3.48c-.41.29,0,1,.4.68,2.23-1.6,3.61-4.2,6.19-5.34s5.48-.81,8.14-.37a17.25,17.25,0,0,1,2.14.43A1.85,1.85,0,0,1,72,23.37a.39.39,0,0,0,.76-.21Z" fill="#138cb7"/><path id="Path_554" data-name="Path 554" d="M74.1,22.42a3.21,3.21,0,0,0-2-2.5,12.23,12.23,0,0,0-3.51-1.28,12.91,12.91,0,0,0-7.4.71A25.44,25.44,0,0,1,57,20.91c-.5.1-.29.86.21.76,2.37-.49,4.43-1.9,6.83-2.33a11.83,11.83,0,0,1,6.75.8c.94.41,2.47,1.08,2.52,2.28,0,.51.81.51.79,0Z" fill="#138cb7"/><path id="Path_555" data-name="Path 555" d="M78.11,22.39a6.26,6.26,0,0,1-3.3-.18c-1.1-.5-1.49-1.7-2.2-2.58a7.79,7.79,0,0,0-2.9-2.11,13.66,13.66,0,0,0-3.63-1.13,14.17,14.17,0,0,0-4.36,0c-.5.08-.29.84.21.76a13,13,0,0,1,7.48,1.12,6.87,6.87,0,0,1,2.83,2.19c.64.94,1.12,2,2.21,2.47a6.9,6.9,0,0,0,3.66.27c.5-.06.51-.85,0-.79Z" fill="#138cb7"/><path id="Path_556" data-name="Path 556" d="M80.38,30.41a6.38,6.38,0,0,0-3.53-4.07,12.77,12.77,0,0,0-6.59-.86c-.51,0-.51.83,0,.79a12.22,12.22,0,0,1,6.11.71,5.66,5.66,0,0,1,3.25,3.64.39.39,0,0,0,.76-.21Z" fill="#138cb7"/><path id="Path_557" data-name="Path 557" d="M79.12,30.44c-2.94-.45-6.21-1-8.3-3.32-.34-.38-.89.18-.56.56,2.18,2.43,5.57,3,8.65,3.52.49.08.71-.68.21-.76Z" fill="#138cb7"/><path id="Path_558" data-name="Path 558" d="M80.45,30.29a7.31,7.31,0,0,0-7.79-6.82H72.6c-.51,0-.51.82,0,.79a6.54,6.54,0,0,1,7.06,6v.05c0,.5.82.51.78,0Z" fill="#138cb7"/><path id="Path_559" data-name="Path 559" d="M61.52,40.1c3.8-.5,8-1,11.44,1.17A7.12,7.12,0,0,1,74.83,43a11.08,11.08,0,0,1,1.26,2.35A16.24,16.24,0,0,0,78.52,50a8.32,8.32,0,0,0,4.82,2.74c.49.08.71-.68.21-.76a7.73,7.73,0,0,1-4.38-2.42,16.26,16.26,0,0,1-2.42-4.68,9.07,9.07,0,0,0-3.14-4.13A11,11,0,0,0,68.8,39a28.65,28.65,0,0,0-7.28.31.41.41,0,0,0-.4.4.39.39,0,0,0,.4.39Z" fill="#138cb7"/><path id="Path_560" data-name="Path 560" d="M49.49,29.55A40.09,40.09,0,0,1,67,32a16.2,16.2,0,0,1,6.38,3.86c1.77,1.89,2.46,4.37,3,6.84.63,2.84,1.17,6,3.22,8.18.34.38.9-.18.56-.56-1.85-2-2.37-4.85-2.93-7.41S76,37.82,74.35,35.77a15.27,15.27,0,0,0-6.19-4.17,41.8,41.8,0,0,0-8.45-2.39,38.05,38.05,0,0,0-10.22-.45c-.5,0-.51.84,0,.79Z" fill="#138cb7"/><path id="Path_561" data-name="Path 561" d="M76.62,43.18a2.15,2.15,0,0,0-1.55-2.76,15.18,15.18,0,0,0-2-.44,7,7,0,0,1-2-.81.4.4,0,0,0-.4.69,7.91,7.91,0,0,0,1.68.75,17.75,17.75,0,0,0,1.76.37,2.74,2.74,0,0,1,1.42.63,1.13,1.13,0,0,1,.37,1.17.41.41,0,0,0,.14.54.39.39,0,0,0,.54-.14Z" fill="#138cb7"/><path id="Path_562" data-name="Path 562" d="M83.09,31.42a4.64,4.64,0,0,0,3.23-.72c1.05-.59,2-1.25,3.13-1.74s2.27-.88,3.4-1.33,2.2-1,3.32-1.42A5.14,5.14,0,0,1,100,26c.48.18.69-.59.21-.77-2.34-.89-4.54.35-6.65,1.26A48,48,0,0,0,87,29.39c-1.07.67-2.32,1.54-3.65,1.27-.5-.1-.71.66-.21.76Z" fill="#138cb7"/><path id="Path_563" data-name="Path 563" d="M86.76,31.16c2.15.46,4.09-1.15,5.83-2.17a11.66,11.66,0,0,1,5.76-2A2.71,2.71,0,0,1,100.76,28a.39.39,0,0,0,.68-.4c-1-1.69-3.38-1.61-5-1.2a21.64,21.64,0,0,0-5.81,2.85c-1.07.65-2.31,1.4-3.61,1.12-.49-.11-.71.65-.21.76Z" fill="#138cb7"/><path id="Path_564" data-name="Path 564" d="M87.84,31.38A26.46,26.46,0,0,1,102,35.86a31.1,31.1,0,0,1,3.4,2.66c.37.34.93-.21.55-.55a27.05,27.05,0,0,0-18.07-7.38.4.4,0,0,0,0,.79Z" fill="#138cb7"/><path id="Path_565" data-name="Path 565" d="M90.41,31A17.29,17.29,0,0,1,102,33.71a16.07,16.07,0,0,1,2.64,2.16.4.4,0,0,0,.56-.56A18.08,18.08,0,0,0,94,30.13a17,17,0,0,0-3.57.07c-.5.06-.51.85,0,.79Z" fill="#138cb7"/><path id="Path_566" data-name="Path 566" d="M90.55,29.94a23,23,0,0,0,5.85-.38c1.66-.19,3.83-.34,5.17.86a22.06,22.06,0,0,1,1.68,2c.33.39.88-.17.56-.56-.52-.61-1-1.3-1.51-1.87a4.37,4.37,0,0,0-2.16-1.17c-2-.47-4-.05-6,.21a13.13,13.13,0,0,1-3.43.09.4.4,0,0,0-.21.77Z" fill="#138cb7"/><path id="Path_567" data-name="Path 567" d="M93.69,26.49a11.43,11.43,0,0,0,1.82-7.19c0-.5-.83-.51-.79,0A10.26,10.26,0,0,1,93,26.09c-.28.43.41.83.68.4Z" fill="#138cb7"/><path id="Path_568" data-name="Path 568" d="M91.6,29a5.58,5.58,0,0,0,3.59-1.65c1-.85,2.34-2,3.79-1.58a.39.39,0,0,0,.21-.76c-1.48-.4-2.85.41-4,1.3s-2.17,2-3.62,1.9c-.51,0-.51.77,0,.79Z" fill="#138cb7"/><path id="Path_569" data-name="Path 569" d="M73.31,33.11c4.83.65,9.54-1.93,14.35-.87a23.86,23.86,0,0,1,3.53,1.15c1.09.43,2.18.87,3.26,1.32a40,40,0,0,1,6.09,3.08,20.15,20.15,0,0,1,3,2.3,4.91,4.91,0,0,1,1.88,3c0,.51.83.51.79,0a4.88,4.88,0,0,0-1.43-2.93,17.42,17.42,0,0,0-2.64-2.29A32.86,32.86,0,0,0,96,34.52c-1.09-.48-2.2-.93-3.31-1.38s-2.36-1-3.57-1.33a13.28,13.28,0,0,0-3.7-.62,22.21,22.21,0,0,0-3.73.34c-2.77.45-5.55,1.17-8.37.79-.21,0-.39.2-.4.4a.41.41,0,0,0,.4.39Z" fill="#138cb7"/></g><path id="Path_595" data-name="Path 595" d="M50.72,11.25l-.21-.63a.41.41,0,0,0-.18-.23.39.39,0,0,0-.58.44l.21.63a.43.43,0,0,0,.18.24.39.39,0,0,0,.54-.14h0a.42.42,0,0,0,0-.31Z" fill="#e2f2ed"/><g id="Group_879" data-name="Group 879"><path id="Path_570" data-name="Path 570" d="M57.45,16.8l.21-3.38a4.66,4.66,0,0,0-.35-2.76.39.39,0,0,0-.68.4,4.42,4.42,0,0,1,.22,2.6l-.19,3.14c0,.51.76.51.79,0Z" fill="#e2f2ed"/><path id="Path_571" data-name="Path 571" d="M41,13.15a1.57,1.57,0,0,1-.28,1c-.18.37-.34.75-.48,1.13a11.47,11.47,0,0,0-.54,2.3,10.06,10.06,0,0,0,.57,4.68c.17.47.94.27.76-.21a9.41,9.41,0,0,1-.5-4.7,10.2,10.2,0,0,1,.62-2.24c.3-.72.8-1.4.61-2.21-.11-.49-.88-.28-.76.21Z" fill="#e2f2ed"/><path id="Path_572" data-name="Path 572" d="M40.09,13.29a14.11,14.11,0,0,0-1.51,8.12c.06.5.85.5.79,0a13.39,13.39,0,0,1,1.4-7.72c.24-.45-.45-.85-.68-.4Z" fill="#e2f2ed"/><path id="Path_573" data-name="Path 573" d="M39.22,13.32a8,8,0,0,0-2.12,3.24,18.93,18.93,0,0,0-.78,4,.41.41,0,0,0,.28.49.4.4,0,0,0,.48-.28A20,20,0,0,1,37.79,17a7.27,7.27,0,0,1,2-3.09c.38-.34-.18-.9-.56-.56Z" fill="#e2f2ed"/><path id="Path_574" data-name="Path 574" d="M37.47,14.48a9.17,9.17,0,0,0-1.87,5.77.39.39,0,0,0,.78,0,8.49,8.49,0,0,1,1.78-5.37.4.4,0,0,0-.15-.54.42.42,0,0,0-.54.14Z" fill="#e2f2ed"/><path id="Path_575" data-name="Path 575" d="M36,15.27a7.46,7.46,0,0,0-2.78,4.35c-.11.49.66.7.76.21A6.69,6.69,0,0,1,36.42,16a.4.4,0,0,0,.14-.54.39.39,0,0,0-.54-.14Z" fill="#e2f2ed"/><path id="Path_576" data-name="Path 576" d="M41.5,12.85a18.35,18.35,0,0,0,3.16,4.79,11.93,11.93,0,0,1,2.55,5.41,10.85,10.85,0,0,1,0,3.46c-.08.49.68.71.76.21a11.78,11.78,0,0,0-.68-6.19,21.67,21.67,0,0,0-3.35-5,10.82,10.82,0,0,1-1.7-2.87c-.18-.47-.94-.27-.77.21Z" fill="#e2f2ed"/><path id="Path_577" data-name="Path 577" d="M42.17,12.79A23,23,0,0,1,47,18.29a5.7,5.7,0,0,1,.71,1.64,7.22,7.22,0,0,1,.13,2c0,1.37-.16,2.74-.26,4.11,0,.5.76.5.79,0,.08-1.12.16-2.24.22-3.37a9.33,9.33,0,0,0-.18-3.16A9,9,0,0,0,47,16.93a24.34,24.34,0,0,0-1.86-2.33,23.73,23.73,0,0,0-2.44-2.37c-.39-.33-.95.23-.56.56Z" fill="#e2f2ed"/><path id="Path_578" data-name="Path 578" d="M41.42,13.24A8.42,8.42,0,0,0,43.08,19c.6.81,1.3,1.56,1.9,2.37a17.84,17.84,0,0,1,1.61,2.51,10.66,10.66,0,0,1,1,3.17c.08.5.84.28.76-.21a12.9,12.9,0,0,0-2.31-5.28c-1.15-1.64-2.74-3-3.44-5a7.78,7.78,0,0,1-.44-3.35c0-.51-.74-.5-.79,0Z" fill="#e2f2ed"/><path id="Path_579" data-name="Path 579" d="M41,14.92c.13,1.57-.26,3.2.32,4.72a21.43,21.43,0,0,0,1.06,2.15l1.24,2.36c.23.45.91.05.68-.4l-1.15-2.19a23.54,23.54,0,0,1-1.07-2.13c-.55-1.44-.16-3-.29-4.51,0-.51-.83-.51-.79,0Z" fill="#e2f2ed"/><path id="Path_580" data-name="Path 580" d="M43.47,20A5.69,5.69,0,0,0,45,25c.36.36.91-.19.56-.56a4.89,4.89,0,0,1-1.32-4.32c.1-.5-.66-.71-.76-.21Z" fill="#e2f2ed"/><path id="Path_581" data-name="Path 581" d="M43.2,12.76A7.56,7.56,0,0,1,49,14a11.5,11.5,0,0,1,2.31,2.26,8,8,0,0,1,1.57,2.71c.15.48.91.27.76-.21a8.8,8.8,0,0,0-1.7-3,12.49,12.49,0,0,0-2.55-2.48A8.37,8.37,0,0,0,43,12c-.49.1-.28.86.21.76Z" fill="#e2f2ed"/><path id="Path_582" data-name="Path 582" d="M54.31,18.89c.46-2-1-3.81-2.37-5A10,10,0,0,0,47,11.72a9.84,9.84,0,0,0-3.11,0c-.5.09-.29.85.21.76a9,9,0,0,1,6,1.07,8.57,8.57,0,0,1,2.35,1.93,3.74,3.74,0,0,1,1.08,3.15.39.39,0,0,0,.76.2Z" fill="#e2f2ed"/><path id="Path_583" data-name="Path 583" d="M43.5,12.9a5.44,5.44,0,0,1,3.29.87,10.63,10.63,0,0,1,2.28,1.73,12.87,12.87,0,0,1,3,5c.16.47.93.27.76-.21a12.7,12.7,0,0,0-6.35-7.5,5.68,5.68,0,0,0-3.23-.61c-.5.07-.29.83.21.76Z" fill="#e2f2ed"/><path id="Path_584" data-name="Path 584" d="M49.08,25.48a10.9,10.9,0,0,1,2.46-6.71c.32-.39-.23-.95-.56-.56a11.8,11.8,0,0,0-2.69,7.27.4.4,0,0,0,.79,0Z" fill="#e2f2ed"/><path id="Path_585" data-name="Path 585" d="M48.83,21.72A6.43,6.43,0,0,1,50.12,17a.4.4,0,0,0,0-.56.39.39,0,0,0-.55,0,7.12,7.12,0,0,0-1.52,5.33.4.4,0,0,0,.79,0Z" fill="#e2f2ed"/><path id="Path_586" data-name="Path 586" d="M48.65,19.31c-.11-1.25-.26-2.81.68-3.82.35-.37-.21-.93-.56-.55-1.1,1.17-1.05,2.87-.91,4.37a.41.41,0,0,0,.4.4.4.4,0,0,0,.39-.4Z" fill="#e2f2ed"/><path id="Path_587" data-name="Path 587" d="M47.47,17.21a4.78,4.78,0,0,1,.41-3,.39.39,0,0,0-.68-.4,5.68,5.68,0,0,0-.49,3.56.4.4,0,0,0,.48.28.41.41,0,0,0,.28-.49Z" fill="#e2f2ed"/><path id="Path_588" data-name="Path 588" d="M46.39,15.86a.34.34,0,0,1,0-.1l0,.11a2.32,2.32,0,0,1,.13-.47l0,.09a1.63,1.63,0,0,1,.24-.4l-.06.08a1.44,1.44,0,0,1,.27-.28.44.44,0,0,0,.12-.28.41.41,0,0,0-.4-.4.5.5,0,0,0-.28.12,2.22,2.22,0,0,0-.76,1.53.39.39,0,0,0,.39.39.41.41,0,0,0,.4-.39Z" fill="#e2f2ed"/><path id="Path_589" data-name="Path 589" d="M49.05,10.63a13.84,13.84,0,0,1,2.63,4.27,12.34,12.34,0,0,1,.68,4.93c0,.5.76.5.79,0a12.74,12.74,0,0,0-.75-5.23,14.37,14.37,0,0,0-2.79-4.52c-.34-.39-.89.17-.56.55Z" fill="#e2f2ed"/><path id="Path_590" data-name="Path 590" d="M51.19,10.58a7.68,7.68,0,0,1,2.44,4.1,7.93,7.93,0,0,1,.17,2.38,6.66,6.66,0,0,1-.2,1.17,1.68,1.68,0,0,1-.5,1c-.43.27,0,.95.39.68a3.28,3.28,0,0,0,1-2.45A8.56,8.56,0,0,0,51.75,10c-.38-.33-.94.22-.56.56Z" fill="#e2f2ed"/><path id="Path_591" data-name="Path 591" d="M53.17,10.41c.3,2.79,1.54,5.69.61,8.48-.17.49.6.69.76.21,1-2.89-.27-5.8-.58-8.69-.05-.5-.84-.51-.79,0Z" fill="#e2f2ed"/><path id="Path_592" data-name="Path 592" d="M60.53,14.38a10.77,10.77,0,0,0-6.26-2,.4.4,0,0,0,0,.79,10,10,0,0,1,5.86,1.87c.42.3.81-.39.4-.68Z" fill="#e2f2ed"/><path id="Path_593" data-name="Path 593" d="M61.76,14a3.22,3.22,0,0,0-1.37-1.39,8.25,8.25,0,0,0-1.93-.84,8.38,8.38,0,0,0-4.19-.14c-.49.11-.28.87.21.76a7.56,7.56,0,0,1,3.66.11,7.1,7.1,0,0,1,1.66.69,2.69,2.69,0,0,1,1.28,1.21c.2.47.88.06.68-.4Z" fill="#e2f2ed"/><path id="Path_594" data-name="Path 594" d="M55.34,18.36l.94-2.45a3.39,3.39,0,0,0,.32-2.33c-.16-.48-.92-.28-.76.21a3.25,3.25,0,0,1-.38,2.08l-.89,2.28a.41.41,0,0,0,.28.49A.41.41,0,0,0,55.34,18.36Z" fill="#e2f2ed"/><path id="Path_596" data-name="Path 596" d="M58.24,16.25l.65-2a2.94,2.94,0,0,0,.18-1.89.41.41,0,0,0-.49-.28.4.4,0,0,0-.27.49,2.59,2.59,0,0,1-.23,1.61L57.48,16c-.16.48.6.69.76.21Z" fill="#e2f2ed"/></g><line id="Line_9" data-name="Line 9" x1="94.32" y1="26.4" x2="111.42" y2="10.35" fill="none" stroke="#848484" stroke-linecap="round" stroke-miterlimit="10" stroke-width="1.38"/><path id="Path_597" data-name="Path 597" d="M10.3,55.48l9.58,42.83a6,6,0,0,0,3.3,3.89c4.3,2.18,14.29,5.5,35.2,5.5s30.35-2.52,34.26-4.17a4.61,4.61,0,0,0,2.86-3.15L105,55.47c.24-1.17-.92-2.23-2.46-2.23H12.74C11.2,53.24,10,54.31,10.3,55.48Z" fill="#e5b58e" stroke="#cea182" stroke-miterlimit="10" stroke-width="0.51"/><path id="Path_598" data-name="Path 598" d="M24.47,102.84s-5-30.1-7.63-47.49" fill="none" stroke="#cea182" stroke-miterlimit="10" stroke-width="1.78"/><path id="Path_599" data-name="Path 599" d="M32.89,105.47S28.6,74.69,25.78,56" fill="none" stroke="#cea182" stroke-miterlimit="10" stroke-width="1.78"/><path id="Path_600" data-name="Path 600" d="M42.62,107.3s-2.7-34.69-3.16-53.54" fill="none" stroke="#cea182" stroke-miterlimit="10" stroke-width="1.78"/><path id="Path_601" data-name="Path 601" d="M52.58,107.53s-.65-35.72,0-54.57" fill="none" stroke="#cea182" stroke-miterlimit="10" stroke-width="1.78"/><line id="Line_10" data-name="Line 10" x1="86.81" y1="104.8" x2="98.93" y2="53.11" fill="none" stroke="#cea182" stroke-miterlimit="10" stroke-width="1.78"/><path id="Path_602" data-name="Path 602" d="M65,107.7s-.49-12-1.81-19.92-2-34.82-2-34.82" fill="none" stroke="#cea182" stroke-miterlimit="10" stroke-width="1.78"/><line id="Line_11" data-name="Line 11" x1="71.7" y1="53.7" x2="72.87" y2="107.53" fill="none" stroke="#cea182" stroke-miterlimit="10" stroke-width="1.78"/><path id="Path_603" data-name="Path 603" d="M80.56,106.11s5.79-40.64,5.17-52.48" fill="none" stroke="#cea182" stroke-miterlimit="10" stroke-width="1.78"/><path id="Path_604" data-name="Path 604" d="M10.39,55.48l17.16,5,25.86-5.31,19.67,5.31,31.5-5.89" fill="none" stroke="#cea182" stroke-miterlimit="10" stroke-width="1.78"/><path id="Path_605" data-name="Path 605" d="M27.22,66.67,11.58,61.79l-.27-2.63,16,5.07,25.83-5.31,19.67,5.31,31.86-6.65L104.19,60,72.78,66.67,53.11,61.35Z" fill="#cea182"/><path id="Path_606" data-name="Path 606" d="M28.62,76.18l-.33-.11c-5-1.77-9-3.07-14.61-4.81l-.13-2.47c5.52,1.7,10.24,3.2,15.18,4.92,3.7-.94,7.44-1.62,11.07-2.29,4.33-.79,8.81-1.62,13.29-2.87l.16,0h2.16l.16,0c2.77.77,5.54,1.51,8.21,2.23,3.68,1,7.17,1.91,10.73,3,4.23-.86,8.48-1.89,12.58-2.89,4.7-1.15,10.7-2.61,15.52-3.52l-.7,2.61c-4.76.89-9.59,2.07-14.25,3.21-4.23,1-8.6,2.09-13,3l-.29.06-.27-.09c-3.64-1.06-7.2-2-11-3-2.63-.7-5.35-1.43-8.08-2.19H53.57c-4.53,1.26-9,2.08-13.34,2.88-3.7.68-7.53,1.38-11.26,2.34Z" fill="#cea182"/><path id="Path_607" data-name="Path 607" d="M100.29,77l-25.88,6L54.76,77.6,28.93,82.91,15.26,78.37A26.57,26.57,0,0,0,15.78,81l13,4.35L54.69,80l19.68,5.32,25.87-5.93Z" fill="#cea182"/><path id="Path_608" data-name="Path 608" d="M98.66,86.52l-24.25,5.6L54.76,86.81,28.93,92.12,17.36,88.37A12.91,12.91,0,0,0,17.89,91L28.8,94.56l25.89-5.32,19.68,5.32,23.77-5.4Z" fill="#cea182"/><path id="Path_609" data-name="Path 609" d="M96.56,96.26l-22.15,5.07L54.76,96l-25.83,5.31-9.2-3c0,.14-.05.13,0,.27.12.3,0,.65.09,1a6,6,0,0,0,.71,1.54l8.27,2.64,25.89-5.32,19.68,5.32L96.3,98.63Z" fill="#cea182"/><path id="Path_610" data-name="Path 610" d="M29.85,72.2l-17-5.41L12.1,63.9,30,69.75l25.82-5.31,19.65,5.31,27.94-6.91-.38,2.6L75.43,72.2,55.74,66.88Z" fill="#cea182"/><path id="Path_611" data-name="Path 611" d="M75.24,81.17,75,81.1c-6.26-1.57-12.61-3.42-18.76-5.21A133.27,133.27,0,0,0,42.3,78.6c-4,.93-8.21,1.9-12.4,2.52l-.26,0-.25-.08c-2.85-.85-5.66-1.8-8.37-2.71-2.31-.77-3.91-1.37-6.29-2.11l-.1-2.47c2.41.75,4.82,1.56,7.15,2.34,2.61.87,5.31,1.78,8,2.61,4-.61,8-1.54,12-2.45a133.49,133.49,0,0,1,14.39-2.78l.24,0,.23.07c6.11,1.78,12.42,3.62,18.62,5.18,4.37-1.06,8.87-2.06,13.23-3s8.6-1.92,12.85-2.94l-.56,2.72C96.5,76.5,93.23,77.06,89,78c-4.44,1-9,2-13.46,3.1Z" fill="#cea182"/><path id="Path_612" data-name="Path 612" d="M99.72,81.53,75.47,87.12,55.81,81.81,30,87.12,16.05,82.58c.19.9.54,2,.79,2.89l13,4.09,25.89-5.32,19.68,5.32,23.77-5.4Z" fill="#cea182"/><path id="Path_613" data-name="Path 613" d="M97.61,91.79,75.47,96.86,55.81,91.54,30,96.85,18.42,93.1c.08.33.16.73.26,1.05.18.6.14,1.24.26,1.85l10.91,3.3L55.74,94,75.42,99.3l21.66-4.88Z" fill="#cea182"/><path id="Path_614" data-name="Path 614" d="M33.77,105.81l22-4.53,19.66,5.31,19.77-4.54-5.79,2.63-17.1,2.89-16.61-3.86L40,107" fill="#cea182"/><path id="Path_615" data-name="Path 615" d="M14.6,27.46c4.47-5,9.49-6.37,15.35-6.83s11.63,2.06,16.22,5.73a22,22,0,0,1,7.45,10,16.17,16.17,0,0,1-.79,11.95c-1.15,2.38-3.07,4.56-5.62,5.23-2.76.71-5.71-.45-8.52,0A48.12,48.12,0,0,0,31.31,55c-6.84,2.37-12.86,4-19.47-.26-1.53-1-4.52-2.71-5.53-4.21C3.68,46.57,3.86,42.9,6.5,39s3.36-7.6,6.26-10.23Z" fill="#b3c5e6"/><g id="Group_761" data-name="Group 761"><path id="Path_616" data-name="Path 616" d="M14.88,27.74a19.64,19.64,0,0,1,5-4.09,19.85,19.85,0,0,1,5.49-2A27.51,27.51,0,0,1,31.67,21a20.35,20.35,0,0,1,6.76,1.36,28,28,0,0,1,11.25,7.94A18.91,18.91,0,0,1,53.08,36a15.88,15.88,0,0,1,.85,7,14.87,14.87,0,0,1-2.22,6.52,8.09,8.09,0,0,1-4.83,3.71c-2.42.54-4.88-.29-7.32-.13-1.21.08-2.43.34-3.64.52a31.9,31.9,0,0,0-3.61.69c-1.18.31-2.31.75-3.47,1.12s-2.24.68-3.38.94a19.91,19.91,0,0,1-6.57.53,15.64,15.64,0,0,1-6.58-2.31,31.57,31.57,0,0,1-4.79-3.3,8.19,8.19,0,0,1-1.8-2.56,8.61,8.61,0,0,1-.88-3.29,8.52,8.52,0,0,1,.51-3.32,16.77,16.77,0,0,1,1.84-3.38c1.26-2,2.15-4.12,3.26-6.17a14.77,14.77,0,0,1,1.79-2.64,8.3,8.3,0,0,1,.78-.79c.19-.16.42-.3.62-.45l1.16-.82c.41-.3,0-1-.4-.68L13.12,28a8.5,8.5,0,0,0-1.54,1.39,27.56,27.56,0,0,0-3.39,5.83A31.43,31.43,0,0,1,6.3,38.59,14.74,14.74,0,0,0,4.5,42.1,9.19,9.19,0,0,0,5,49a8.79,8.79,0,0,0,1.84,2.71,19.51,19.51,0,0,0,2.46,1.88,28.51,28.51,0,0,0,5.9,3.25,16.21,16.21,0,0,0,6.77.86,30.94,30.94,0,0,0,6.92-1.48c1.2-.37,2.37-.83,3.58-1.16a34.68,34.68,0,0,1,3.79-.72A30.31,30.31,0,0,1,40,53.8a37.52,37.52,0,0,1,3.82.27,10.3,10.3,0,0,0,3.75-.28,7.91,7.91,0,0,0,2.75-1.56,12.69,12.69,0,0,0,3.57-5.6,16.71,16.71,0,0,0-1.56-14A27.38,27.38,0,0,0,42,23.12a24.74,24.74,0,0,0-6.76-2.53,22,22,0,0,0-7-.19,26.37,26.37,0,0,0-6,1.33,19,19,0,0,0-5.44,3.06,21.73,21.73,0,0,0-2.5,2.39C14,27.55,14.54,28.11,14.88,27.74Z" fill="#d3def1"/></g><path id="Path_617" data-name="Path 617" d="M5.13,47.93a60.34,60.34,0,0,1,9.11-6.54,40.07,40.07,0,0,1,10.33-4.26,29.86,29.86,0,0,1,10.36-.74,25,25,0,0,1,9.7,3,20.28,20.28,0,0,1,4.13,3.06,11.12,11.12,0,0,1,2.94,4.38A8,8,0,0,1,52,48.14a.41.41,0,0,0,.39.4.4.4,0,0,0,.4-.4c-.48-3.65-3.33-6.47-6.25-8.46a24.82,24.82,0,0,0-9.81-3.84A30.24,30.24,0,0,0,26.07,36a38.82,38.82,0,0,0-10.82,3.94,57.45,57.45,0,0,0-9.57,6.51l-1.1.93c-.39.34.17.89.55.56Z" fill="#d3def1"/><path id="Path_618" data-name="Path 618" d="M4.58,47.37c3.42-2.48,6.8-5,10.29-7.4A44.25,44.25,0,0,1,25.5,34.33a21.66,21.66,0,0,1,11.74-.88c3.87.9,7.25,3.11,10.53,5.25a11.19,11.19,0,0,1,2,1.59A5.06,5.06,0,0,1,51,42.37c.5,1.61.77,3.28,1.13,4.92.08.35.17.71.26,1.06a.39.39,0,0,0,.76-.21c-.44-1.64-.69-3.32-1.11-5a9.68,9.68,0,0,0-.78-2.27,6.23,6.23,0,0,0-1.76-2c-.74-.57-1.54-1.07-2.32-1.58s-1.68-1.07-2.54-1.58a29.53,29.53,0,0,0-5.44-2.6,21,21,0,0,0-12-.17,38.56,38.56,0,0,0-11.11,5.22c-3.6,2.34-7,4.94-10.51,7.47l-1.37,1c-.41.29,0,1,.4.68Z" fill="#d3def1"/><path id="Path_619" data-name="Path 619" d="M53.52,46.39C54.23,42,52.5,37.61,50,34a52,52,0,0,0-4.24-5.13,49,49,0,0,0-4.46-4.42A18.79,18.79,0,0,0,35.37,21c-.48-.16-.69.6-.21.76C39,23,41.91,25.92,44.59,28.8c2.87,3.1,5.8,6.38,7.31,10.39a13.69,13.69,0,0,1,.86,7c-.09.5.68.71.76.21Z" fill="#d3def1"/><path id="Path_620" data-name="Path 620" d="M54.26,46.38c1.28-5.79-2.46-11.14-5.2-15.9L46.47,26a.39.39,0,0,0-.68.4L50.18,34a26.57,26.57,0,0,1,3.27,7.51,10.93,10.93,0,0,1,0,4.66c-.11.49.65.7.76.21Z" fill="#d3def1"/><path id="Path_621" data-name="Path 621" d="M29.85,21.44c4.19,1.24,7.69,4,10.77,7,1.57,1.53,3.06,3.15,4.53,4.77a51.49,51.49,0,0,1,4.28,5.17,17.64,17.64,0,0,1,3,6.75c.1.49.86.28.76-.21-.85-4.52-3.83-8.21-6.83-11.54A62.62,62.62,0,0,0,36.67,24a22.34,22.34,0,0,0-6.61-3.33.39.39,0,0,0-.21.76Z" fill="#d3def1"/><path id="Path_622" data-name="Path 622" d="M52,41.47c.14-4.76-3.85-8.08-7.35-10.63a122.23,122.23,0,0,0-12.31-7.6c-2.25-1.26-4.77-2.5-7.42-1.95-.5.1-.28.86.21.76,2.24-.46,4.43.56,6.34,1.61s4,2.27,6,3.46,3.93,2.4,5.81,3.72A31.67,31.67,0,0,1,48.39,35a9.29,9.29,0,0,1,2.8,6.44c0,.51.77.51.79,0Z" fill="#d3def1"/><path id="Path_623" data-name="Path 623" d="M50.89,39.31c-5.73-4.3-12.34-8.55-19.8-8.21A26.8,26.8,0,0,0,20,34.4a59.24,59.24,0,0,0-5.12,3.07c-1.35.9-2.66,1.88-4,2.74-1.21.74-2.45,1.44-3.64,2.22A19.38,19.38,0,0,0,5.4,43.68a4.87,4.87,0,0,0-1.14,1.21.39.39,0,0,0,.68.39,4.11,4.11,0,0,1,.91-1,15.82,15.82,0,0,1,1.5-1.08c1.07-.71,2.18-1.36,3.29-2s2.33-1.55,3.5-2.33c1.61-1.1,3.25-2.16,4.95-3.12A28.37,28.37,0,0,1,29.77,32a20.75,20.75,0,0,1,10.51,1.72A50,50,0,0,1,50.49,40c.41.31.8-.38.4-.68Z" fill="#d3def1"/><path id="Path_624" data-name="Path 624" d="M51,40.69a4.49,4.49,0,0,0-1.11-3.61,20.44,20.44,0,0,0-2.77-2.81,39.16,39.16,0,0,0-6.26-4.54A40.64,40.64,0,0,0,26.24,24.6a39.24,39.24,0,0,0-8.73-.32c-.5,0-.51.83,0,.79A39.15,39.15,0,0,1,32.29,26.8a39.66,39.66,0,0,1,13.12,7.07,34.89,34.89,0,0,1,3.11,2.85c.94,1,2,2.31,1.69,3.76-.09.5.67.71.76.21Z" fill="#d3def1"/><path id="Path_625" data-name="Path 625" d="M49.59,37A95.11,95.11,0,0,0,37,30.43a51.67,51.67,0,0,0-13.85-3.79,37.37,37.37,0,0,0-8.12-.11c-.5,0-.5.84,0,.79a40.49,40.49,0,0,1,14.2,1.28,63.22,63.22,0,0,1,13,5.19c2.34,1.22,4.63,2.54,6.89,3.92C49.62,38,50,37.29,49.59,37Z" fill="#d3def1"/><path id="Path_626" data-name="Path 626" d="M44.14,34.86c-2.84-2.94-7-4.31-10.93-5.19a55.56,55.56,0,0,0-13.06-1.15c-2.48,0-5,.18-7.43.37-.5,0-.51.83,0,.79a92.73,92.73,0,0,1,12.91-.26A41.25,41.25,0,0,1,38.05,32a15.29,15.29,0,0,1,5.53,3.47.4.4,0,0,0,.56-.56Z" fill="#d3def1"/><path id="Path_627" data-name="Path 627" d="M36.48,31.06c-4.61-.29-9.34-.57-13.86.61a28.72,28.72,0,0,0-6.3,2.62A66.06,66.06,0,0,0,10.5,37.8a68.55,68.55,0,0,0-6.11,4.63c-.39.32.17.88.56.55a68.8,68.8,0,0,1,11-7.57A31.9,31.9,0,0,1,22,32.67a26.54,26.54,0,0,1,6.74-1.05,76.78,76.78,0,0,1,7.74.23c.51,0,.51-.76,0-.79Z" fill="#d3def1"/><path id="Path_628" data-name="Path 628" d="M33.7,31a78.62,78.62,0,0,0-10.41,0,32.29,32.29,0,0,0-5.07.83,30.52,30.52,0,0,0-4.71,1.72A21.7,21.7,0,0,1,8.17,35.4c-.5.09-.29.85.21.77a19.31,19.31,0,0,0,4.72-1.59,38.43,38.43,0,0,1,4.64-1.81,36.07,36.07,0,0,1,10.14-1.16c1.94,0,3.88.09,5.82.18.5,0,.5-.77,0-.79Z" fill="#d3def1"/><path id="Path_629" data-name="Path 629" d="M33.69,30.34A64.21,64.21,0,0,0,23.56,28.8a15.24,15.24,0,0,0-5,.53c-1.35.37-2.67.79-4,1.12s-2.86.67-4.26,1.1a.39.39,0,0,0,.21.76c2.47-.76,5-1.24,7.51-2a15.37,15.37,0,0,1,4.85-.76,42.76,42.76,0,0,1,5.05.51c1.87.27,3.72.62,5.57,1,.49.11.7-.65.21-.77Z" fill="#d3def1"/><path id="Path_630" data-name="Path 630" d="M38.23,37.36a9.1,9.1,0,0,1,.64,7.88c-.18.47.58.68.76.21A9.83,9.83,0,0,0,38.91,37c-.26-.43-.95,0-.68.4Z" fill="#d3def1"/><path id="Path_631" data-name="Path 631" d="M35.73,36.71a16.59,16.59,0,0,1,2,8.41.4.4,0,0,0,.79,0,17.59,17.59,0,0,0-2.13-8.81.4.4,0,0,0-.69.4Z" fill="#d3def1"/><path id="Path_632" data-name="Path 632" d="M32.23,36.5a19.55,19.55,0,0,0,4.63,8.25c.35.37.91-.19.56-.56A18.73,18.73,0,0,1,33,36.29a.39.39,0,0,0-.76.21Z" fill="#d3def1"/><path id="Path_633" data-name="Path 633" d="M29.5,36.33c.67,3.86,4.4,5.93,6.38,9,.27.42,1,0,.68-.4-1.93-3-5.64-5.09-6.29-8.84-.09-.5-.85-.29-.76.21Z" fill="#d3def1"/><path id="Path_634" data-name="Path 634" d="M27.25,36.71c1.75,4.19,6.46,5.46,9.5,8.43.36.35.92-.21.56-.56A35.89,35.89,0,0,0,32,40.81a10.31,10.31,0,0,1-4-4.31.42.42,0,0,0-.49-.27.39.39,0,0,0-.27.48Z" fill="#d3def1"/><path id="Path_635" data-name="Path 635" d="M5.6,47.72a15.77,15.77,0,0,0,10.25,8.44,11.47,11.47,0,0,1,4,1.32c.42.29.81-.39.4-.68a9.12,9.12,0,0,0-3.43-1.23,14.81,14.81,0,0,1-8.48-5.06,15,15,0,0,1-2-3.18c-.21-.46-.89-.06-.68.39Z" fill="#d3def1"/><path id="Path_636" data-name="Path 636" d="M7,46.68c0,2.56,1.85,4.6,4,5.78A23.94,23.94,0,0,0,14.69,54c1.39.48,2.79.92,4.21,1.31A12.43,12.43,0,0,1,23,56.92c.41.3.81-.38.4-.68A10.09,10.09,0,0,0,20,54.82c-1.35-.36-2.69-.74-4-1.18-2.35-.78-5-1.58-6.72-3.46a5.14,5.14,0,0,1-1.47-3.5.4.4,0,0,0-.79,0Z" fill="#d3def1"/><path id="Path_637" data-name="Path 637" d="M8.52,45.4a40.07,40.07,0,0,0,6.94,4.51C18,51.07,20.74,51.46,23,53a11.61,11.61,0,0,1,3,3c.28.42,1,0,.68-.39A12.5,12.5,0,0,0,20.73,51c-1.37-.52-2.8-.86-4.16-1.43a22.27,22.27,0,0,1-3.72-2c-1.36-.87-2.65-1.84-3.93-2.81-.41-.31-.8.38-.4.68Z" fill="#d3def1"/><path id="Path_638" data-name="Path 638" d="M7.51,46c2.36,4.93,8.31,6,12.73,8.32A13.65,13.65,0,0,1,23.9,57c.35.37.9-.19.55-.56C20.76,52.48,15,52,10.83,48.78a9.1,9.1,0,0,1-2.64-3.2c-.22-.46-.9-.06-.68.4Z" fill="#d3def1"/><path id="Path_639" data-name="Path 639" d="M23.58,57a5.53,5.53,0,0,0,4.9-1.53,30.79,30.79,0,0,0,3.45-4.43,9.27,9.27,0,0,1,2.24-2.18c.43-.27,0-.95-.4-.68-1.94,1.25-3.05,3.29-4.39,5.09s-3.27,3.53-5.59,3a.4.4,0,0,0-.21.77Z" fill="#d3def1"/><path id="Path_640" data-name="Path 640" d="M23.29,57.56A3,3,0,0,0,25,57c.5-.3,1-.61,1.47-1a6.43,6.43,0,0,0,2.18-2.64,10.36,10.36,0,0,1,1.66-2.91,6.87,6.87,0,0,1,2.63-1.75c.47-.17.27-.93-.21-.76a7.68,7.68,0,0,0-4.44,4.27,11,11,0,0,1-.77,1.63,5.18,5.18,0,0,1-1.14,1.24,14.57,14.57,0,0,1-1.4,1,3.06,3.06,0,0,1-1.69.68c-.5,0-.5.77,0,.79Z" fill="#d3def1"/><path id="Path_641" data-name="Path 641" d="M36.26,48.08c-3,1.75-4,5.55-6.86,7.46-.42.27,0,1,.4.68a13.51,13.51,0,0,0,3.43-3.79,11.23,11.23,0,0,1,3.43-3.66.4.4,0,0,0-.4-.69Z" fill="#d3def1"/><path id="Path_642" data-name="Path 642" d="M32.58,47.59c-4.72.32-9-2.19-12.18-5.52A29.64,29.64,0,0,1,18,39.14c-.29-.4-1,0-.68.4,2.8,3.83,6.46,7.26,11.17,8.46a13.23,13.23,0,0,0,4.11.38c.5,0,.51-.82,0-.79Z" fill="#d3def1"/><path id="Path_643" data-name="Path 643" d="M33.22,48.2l-4.58.14A12,12,0,0,1,24.29,48a14.28,14.28,0,0,1-5.95-4.19,15.15,15.15,0,0,1-2.22-3.43c-.22-.46-.9-.06-.68.4a15.93,15.93,0,0,0,4.69,5.8,14.94,14.94,0,0,0,3.3,1.93,7.6,7.6,0,0,0,2,.58,15.09,15.09,0,0,0,2.33.06L33.22,49a.4.4,0,0,0,0-.79Z" fill="#d3def1"/><path id="Path_644" data-name="Path 644" d="M32.58,48.62c-5.46.13-11.38.15-16-3.19a11.19,11.19,0,0,1-2.82-2.92c-.28-.42-1,0-.68.4a13.31,13.31,0,0,0,5.8,4.74,23.52,23.52,0,0,0,8.41,1.76c1.77.08,3.53,0,5.3,0a.4.4,0,0,0,0-.79Z" fill="#d3def1"/><path id="Path_645" data-name="Path 645" d="M28.55,52.06a5.12,5.12,0,0,1-3.11-.82,37.45,37.45,0,0,0-3.38-1.62,53.7,53.7,0,0,1-7.33-3.73c-1-.62-2.62-1.49-2.55-2.84,0-.51-.76-.51-.79,0-.07,1.27,1,2.19,1.94,2.85a34,34,0,0,0,3.76,2.25c1.29.68,2.63,1.29,4,1.88s2.53,1.07,3.74,1.75a6.16,6.16,0,0,0,3.76,1.07c.5-.06.5-.85,0-.79Z" fill="#d3def1"/><path id="Path_646" data-name="Path 646" d="M34.05,48.53A6.9,6.9,0,0,0,32.3,46.1c-.79-.77-1.58-1.53-2.39-2.28a55.08,55.08,0,0,0-5-4.27,31.39,31.39,0,0,0-3.18-2.06c-.44-.24-.84.44-.4.69,3.73,2.08,6.84,5,9.9,8a7.64,7.64,0,0,1,2.07,2.59c.17.47.94.27.76-.21Z" fill="#d3def1"/><path id="Path_647" data-name="Path 647" d="M33,47.91c-1.89.05-3.41-1.3-4.73-2.47l-5-4.43L20.4,38.49c-.38-.34-.94.22-.56.56l5.24,4.65,2.6,2.3A16.33,16.33,0,0,0,30,47.78a5.42,5.42,0,0,0,3,.92c.5,0,.5-.81,0-.79Z" fill="#d3def1"/><path id="Path_648" data-name="Path 648" d="M33.78,48.12a7.94,7.94,0,0,0-2.61-4.78c-1.51-1.44-3.36-2.45-5-3.77a4.27,4.27,0,0,1-1.75-2.52c-.08-.5-.84-.29-.76.21.3,1.9,2.18,3.1,3.63,4.12a17.75,17.75,0,0,1,4.51,3.9A6.17,6.17,0,0,1,33,48.12c.06.5.85.51.79,0Z" fill="#d3def1"/><path id="Path_649" data-name="Path 649" d="M33.65,49a8.61,8.61,0,0,0,2.57-.79,3.94,3.94,0,0,1,2.51-.43,6,6,0,0,1,2.38,1.59,11.24,11.24,0,0,1,1.79,2.22c.53.86.87,1.89,1.78,2.43a.39.39,0,0,0,.4-.68c-.78-.46-1.09-1.5-1.55-2.24a12.77,12.77,0,0,0-1.86-2.29,7.6,7.6,0,0,0-2.38-1.67,3.7,3.7,0,0,0-2.66.07,12.6,12.6,0,0,1-3,1c-.5,0-.51.83,0,.79Z" fill="#d3def1"/><path id="Path_650" data-name="Path 650" d="M42.23,38.58a29.84,29.84,0,0,1,4.14,4.49,11.25,11.25,0,0,1,1.41,2.65A10.51,10.51,0,0,1,48.35,49a35.4,35.4,0,0,0,.19,4.12c.07.5.83.29.76-.21-.35-2.37.1-4.8-.67-7.12a14.6,14.6,0,0,0-3.31-5.21c-.81-.88-1.67-1.7-2.53-2.52-.37-.35-.93.21-.56.56Z" fill="#d3def1"/><path id="Path_651" data-name="Path 651" d="M47,41.11a12,12,0,0,0,1.09,2.56A10.82,10.82,0,0,1,49,46.33a11.08,11.08,0,0,1-.31,5.54c-.16.49.61.69.76.21a12,12,0,0,0,.36-5.74A11.84,11.84,0,0,0,49,43.63a15.31,15.31,0,0,1-1.18-2.73c-.11-.49-.87-.28-.76.21Z" fill="#d3def1"/><path id="Path_652" data-name="Path 652" d="M50,44.58c.16,2.74.33,5.7-1.06,8.18a.39.39,0,0,0,.68.4c1.46-2.61,1.34-5.69,1.17-8.58,0-.5-.82-.5-.79,0Z" fill="#d3def1"/><path id="Path_653" data-name="Path 653" d="M40.13,46a8.48,8.48,0,0,0-3.7-1.15c-1.34-.1-2.72.26-4-.12a.39.39,0,0,0-.21.76,15.5,15.5,0,0,0,3.91.13,7.55,7.55,0,0,1,3.64,1.07.4.4,0,0,0,.4-.69Z" fill="#d6e0f2"/><path id="Path_654" data-name="Path 654" d="M34.4,44.61c-1.65-1.15-3.37-2.25-4.95-3.49a7,7,0,0,1-2.85-3.93c-.1-.5-.86-.29-.76.21a7.53,7.53,0,0,0,3,4.21c1.66,1.32,3.46,2.47,5.2,3.68.41.29.81-.4.39-.68Z" fill="#d3def1"/><path id="Path_655" data-name="Path 655" d="M39.62,46.56c1.28-.06,1.61,1.7,2.05,2.57.54,1.06,1.45,1.89,1.89,3a.41.41,0,0,0,.49.28.4.4,0,0,0,.27-.49c-.51-1.27-1.55-2.21-2.1-3.46a7.6,7.6,0,0,0-.93-1.87,2.08,2.08,0,0,0-1.67-.82c-.51,0-.51.81,0,.79Z" fill="#d3def1"/><path id="Path_656" data-name="Path 656" d="M40.1,46.78a8.15,8.15,0,0,0,2.28-4.62,4.12,4.12,0,0,0-.62-2.34c-.35-.58-1-1.28-.81-2,.11-.49-.65-.7-.76-.21a2.64,2.64,0,0,0,.49,2,4.63,4.63,0,0,1,.91,2.14c.1,1.75-1,3.22-2.05,4.5-.32.39.24,1,.56.56Z" fill="#d3def1"/><path id="Path_657" data-name="Path 657" d="M40,48.43a15,15,0,0,1-.29,5.21c-.12.49.64.7.76.21a15.44,15.44,0,0,0,.32-5.42.4.4,0,0,0-.79,0Z" fill="#d3def1"/><path id="Path_658" data-name="Path 658" d="M39.74,48.41a20.86,20.86,0,0,1-5.54,5.18c-.42.28,0,1,.4.69a22.13,22.13,0,0,0,5.82-5.47c.3-.41-.38-.8-.68-.4Z" fill="#d3def1"/><path id="Path_659" data-name="Path 659" d="M36.93,47.92c-.58,2.3-3.26,3.78-2.92,6.37a.41.41,0,0,0,.4.39.4.4,0,0,0,.39-.39A4.54,4.54,0,0,1,36,51.08a8.59,8.59,0,0,0,1.68-2.95.39.39,0,0,0-.76-.21Z" fill="#d3def1"/><path id="Path_660" data-name="Path 660" d="M40.94,45.07a37.1,37.1,0,0,1,2.65,8.48c.09.5.85.29.76-.21a37.44,37.44,0,0,0-2.73-8.66c-.21-.47-.89-.07-.68.39Z" fill="#d3def1"/><path id="Path_661" data-name="Path 661" d="M41.64,43.2a12.55,12.55,0,0,1,2.48,9.89c-.09.5.68.71.76.21A13.41,13.41,0,0,0,42.2,42.65c-.32-.4-.87.16-.56.55Z" fill="#d3def1"/><path id="Path_662" data-name="Path 662" d="M41.47,40.21c.78,1,1.58,2,2.35,3a8.62,8.62,0,0,1,1.58,3c.56,2.29,0,4.7-.59,6.93-.12.49.64.7.76.21.59-2.37,1.19-4.91.59-7.35a9,9,0,0,0-1.66-3.24c-.81-1.07-1.65-2.13-2.47-3.19a.4.4,0,0,0-.56.56Z" fill="#d3def1"/><line id="Line_12" data-name="Line 12" x1="74.56" y1="42.23" x2="51.44" y2="63.5" fill="none" stroke="#848484" stroke-linecap="round" stroke-miterlimit="10" stroke-width="1.38"/><path id="Path_663" data-name="Path 663" d="M50.78,62.84c-.78,1-1.59,2.11-2.37,3.08a1.86,1.86,0,0,0-.38.63.64.64,0,0,0,.17.68.71.71,0,0,0,.45.12,1.5,1.5,0,0,0,1.21-.65.19.19,0,0,0,0-.27.18.18,0,0,0-.09,0l-.49-.06a.18.18,0,0,1-.1,0c-.06-.06,0-.16,0-.22.84-1,2.34-1.19,3.17-2.17.06-.07,0-.27,0-.36a.47.47,0,0,0-.18-.46,1.37,1.37,0,0,0-.47-.23" fill="#848484"/><g id="Group_180" data-name="Group 180"><path id="Path_160" data-name="Path 160" d="M51.4,102.21s-.79,12,9,15.41,16-7.15,22.35-10.93,15.66-3.09,19-5.52c6-4.31,6.88-17.19-3.83-23.34a14.88,14.88,0,0,0-17.34,1.93c-4.49,4-8.2,9.18-11.43,10.76C64.45,92.84,51.7,94.69,51.4,102.21Z" fill="#f0eca1" stroke="#fcf6b0" stroke-miterlimit="10" stroke-width="0.99"/><g id="Group_145" data-name="Group 145"><path id="Path_161" data-name="Path 161" d="M83,106.9a6.4,6.4,0,0,0-.42-4.81c-.34-.79-.74-1.54-1.16-2.3l-1.39-2.55L78.66,94.7c-.41-.76-.82-1.52-1.25-2.26a9.11,9.11,0,0,0-3-3.39A4,4,0,0,0,70.25,89a2.3,2.3,0,0,0-.41.35.27.27,0,0,0,0,.38.28.28,0,0,0,.38,0,3.16,3.16,0,0,1,3.6-.3,7.56,7.56,0,0,1,2.92,3c.42.68.79,1.39,1.17,2.09L79.29,97l1.34,2.46c.41.75.83,1.49,1.2,2.26a7,7,0,0,1,.86,4.47,3.13,3.13,0,0,1-.16.52.28.28,0,0,0,.13.36.28.28,0,0,0,.36-.13Z" fill="#fcf6b0"/></g><g id="Group_146" data-name="Group 146"><path id="Path_162" data-name="Path 162" d="M70.42,89.81a1.19,1.19,0,0,1,.08-.2.31.31,0,0,1,0-.1l0-.05c0-.08,0,0,0,0a1.57,1.57,0,0,1,.31-.32,2.13,2.13,0,0,1,.9-.42,4,4,0,0,1,.5-.09h.49A5.21,5.21,0,0,1,74,88.8a7.7,7.7,0,0,1,3.88,2.86,14.26,14.26,0,0,1,2.2,4.86c.24.89.44,1.78.63,2.68l.66,3,.66,3.11a6.65,6.65,0,0,1,.25,1.47.93.93,0,0,1-.14.54.69.69,0,0,1-.36.29.38.38,0,0,1-.37,0,.27.27,0,0,0-.35.13.28.28,0,0,0,.12.36,1,1,0,0,0,1.2-.19,1.59,1.59,0,0,0,.43-1.38,13.64,13.64,0,0,0-.32-1.57l-.34-1.62-.71-3.28c-.21-1-.41-2-.66-3a16.45,16.45,0,0,0-2.15-5.32,8.65,8.65,0,0,0-4.05-3.36,5.16,5.16,0,0,0-2.49-.35,2.71,2.71,0,0,0-2,1.11,2,2,0,0,0-.23.52.29.29,0,0,0,.22.32A.28.28,0,0,0,70.42,89.81Z" fill="#fcf6b0"/></g><g id="Group_147" data-name="Group 147"><path id="Path_163" data-name="Path 163" d="M70.21,89.64a9.62,9.62,0,0,1,4.14,1.87A14.2,14.2,0,0,1,77.51,95a25.2,25.2,0,0,1,2.17,4.27,49,49,0,0,1,1.69,4.91c.12.42.24.84.35,1.26a10.54,10.54,0,0,1,.27,1.24,1.81,1.81,0,0,1-.15,1.12,1,1,0,0,1-.65.5H81a.33.33,0,0,1-.19-.06.28.28,0,0,0-.36.14.29.29,0,0,0,.12.35,1.44,1.44,0,0,0,1.85-.9,4.6,4.6,0,0,0-.23-2.69,50.89,50.89,0,0,0-1.67-5.21,30,30,0,0,0-2.16-4.59,15.58,15.58,0,0,0-3.16-3.84,10.75,10.75,0,0,0-4.31-2.28c-.2,0-.39-.09-.59-.12a.28.28,0,0,0-.31.22A.28.28,0,0,0,70.21,89.64Z" fill="#fcf6b0"/></g><g id="Group_148" data-name="Group 148"><path id="Path_164" data-name="Path 164" d="M69.24,90.12a10.1,10.1,0,0,1,4,2.24,16.63,16.63,0,0,1,3,3.63,35.9,35.9,0,0,1,2.33,4.48c.73,1.6,1.44,3.22,2.26,4.78a24.35,24.35,0,0,0,1.35,2.25c.23.34.6.74,1.05.58s.46-.77.54-1.16l.13-.71a.28.28,0,0,0-.22-.31.28.28,0,0,0-.31.22l-.13.71c0,.21-.08.43-.13.64a.23.23,0,0,1-.08.11s0,0,0,0a.12.12,0,0,1-.09,0,1.09,1.09,0,0,1-.34-.37A23.44,23.44,0,0,1,81.24,105c-.8-1.51-1.49-3.09-2.2-4.65a38.8,38.8,0,0,0-2.31-4.49,18.07,18.07,0,0,0-2.93-3.64,11.07,11.07,0,0,0-3.9-2.42l-.57-.18a.28.28,0,0,0-.31.22.27.27,0,0,0,.22.31Z" fill="#fcf6b0"/></g><g id="Group_149" data-name="Group 149"><path id="Path_165" data-name="Path 165" d="M51.65,105.58a1.73,1.73,0,0,0-.24,2.24A2.63,2.63,0,0,0,54,108.9a12.25,12.25,0,0,0,3.09-.81,23.1,23.1,0,0,0,2.74-1.22,50.54,50.54,0,0,0,9.72-7.05,84.83,84.83,0,0,1,9.63-7.7A43.46,43.46,0,0,1,104,85.3c.27,0,1,0,1,.4s.54.29.53,0c0-1-1.56-.89-2.22-.9-1.09,0-2.17,0-3.25.07a42.36,42.36,0,0,0-6.34.85,44.29,44.29,0,0,0-12,4.42,45,45,0,0,0-5.32,3.42c-1.62,1.23-3.18,2.55-4.71,3.88a86.76,86.76,0,0,1-9.38,7.52,26.2,26.2,0,0,1-5.25,2.67,11,11,0,0,1-3.07.8A1.92,1.92,0,0,1,51.67,107a1,1,0,0,1,.29-1C52.22,105.79,51.91,105.35,51.65,105.58Z" fill="#fcf6b0"/></g><g id="Group_150" data-name="Group 150"><path id="Path_166" data-name="Path 166" d="M52.07,109.21c2.87,2.67,7.16,2.6,10.64,1.27,3.87-1.48,6.85-4.55,9.65-7.49,1.48-1.56,3-3.12,4.57-4.56a46.41,46.41,0,0,1,5-4,32.13,32.13,0,0,1,11.69-5.16,24.41,24.41,0,0,1,6.38-.48c1.58.1,3.42.36,4.83-.53a2.72,2.72,0,0,0,.83-.79c.2-.29-.21-.64-.4-.35-1,1.38-2.9,1.29-4.38,1.2-1-.07-2-.12-2.94-.1a25.45,25.45,0,0,0-3.14.29A31.5,31.5,0,0,0,83.18,93a51.51,51.51,0,0,0-9.75,8.11c-2.85,3-5.59,6.15-9.25,8.13-3.18,1.72-7.47,2.44-10.68.42a6.79,6.79,0,0,1-1.08-.84C52.16,108.57,51.82,109,52.07,109.21Z" fill="#fcf6b0"/></g><g id="Group_151" data-name="Group 151"><path id="Path_167" data-name="Path 167" d="M52.49,108.87a15.06,15.06,0,0,0,5.8.78,16.46,16.46,0,0,0,5.36-2.14c3.45-1.81,6.77-3.85,10-6s6.47-4.35,9.7-6.51,6.51-4.31,9.91-6.21a19.68,19.68,0,0,1,5.33-2.2,7.93,7.93,0,0,1,5.43.45,7.1,7.1,0,0,1,1.22.83.27.27,0,0,0,.35-.41,7.34,7.34,0,0,0-5.16-1.67,14.78,14.78,0,0,0-5.55,1.56,54.38,54.38,0,0,0-5,2.84c-1.67,1-3.33,2.09-5,3.17-3.28,2.16-6.51,4.39-9.78,6.56s-6.56,4.27-10,6.16c-.87.48-1.74.94-2.62,1.39a23.65,23.65,0,0,1-2.66,1.22,8,8,0,0,1-2.86.46,14.84,14.84,0,0,1-2.95-.46l-1.44-.38C52.25,108.25,52.16,108.78,52.49,108.87Z" fill="#fcf6b0"/></g><g id="Group_152" data-name="Group 152"><path id="Path_168" data-name="Path 168" d="M52.16,108.83a15.86,15.86,0,0,0,10.55-2.18C66.16,104.73,69,102,72,99.43a65.76,65.76,0,0,1,9.51-6.83A56.87,56.87,0,0,1,92,87.67c3.59-1.22,7.68-2,11.34-.63a12,12,0,0,1,1.27.57c.31.16.54-.33.23-.49-3.46-1.79-7.5-1.51-11.15-.53a40,40,0,0,0-5.52,2Q85.53,89.76,83,91.16a63.86,63.86,0,0,0-9.69,6.51c-3.1,2.51-5.94,5.35-9.27,7.56-3.05,2-6.71,3.53-10.43,3.25a10.11,10.11,0,0,1-1.33-.18.27.27,0,0,0-.09.53Z" fill="#fcf6b0"/></g><g id="Group_153" data-name="Group 153"><path id="Path_169" data-name="Path 169" d="M51.79,105.82c3.54-1.37,6.36-4,9-6.6,1.35-1.34,2.68-2.72,4.09-4a48.09,48.09,0,0,1,5.06-4c1.8-1.23,3.66-2.37,5.51-3.51s3.66-2.27,5.47-3.44a24.23,24.23,0,0,1,5.48-2.86A14.41,14.41,0,0,1,92.87,81c4,.54,8.14,1.81,11.22,4.56.37.33.73.69,1.07,1.06s.67-.05.44-.31a16.21,16.21,0,0,0-4.87-3.62,24.21,24.21,0,0,0-5.81-1.88,19.42,19.42,0,0,0-6.62-.38,16.26,16.26,0,0,0-5.81,2.26c-1.85,1.09-3.62,2.31-5.44,3.43s-3.77,2.3-5.63,3.5a58.87,58.87,0,0,0-5.33,3.83c-1.54,1.26-3,2.66-4.38,4.07-2.68,2.68-5.39,5.52-8.84,7.22-.41.2-.83.38-1.26.55S51.47,106,51.79,105.82Z" fill="#fcf6b0"/></g><g id="Group_154" data-name="Group 154"><path id="Path_170" data-name="Path 170" d="M52,106.63c3.8.86,7.68-.59,10.77-2.77,3.47-2.47,6-6,8.79-9.16a40.26,40.26,0,0,1,4.36-4.4,31.77,31.77,0,0,1,4.89-3.42,25,25,0,0,1,11-3.33,26.83,26.83,0,0,1,11.64,2.06c.42.18.83.38,1.24.58s.53-.33.23-.48A26.49,26.49,0,0,0,93.53,83a23,23,0,0,0-5.73.55,26.88,26.88,0,0,0-5.58,2,32.76,32.76,0,0,0-9.52,7.08c-3,3.15-5.43,6.78-8.73,9.61-2.86,2.45-6.6,4.41-10.47,4.09a10.89,10.89,0,0,1-1.41-.21C51.75,106,51.66,106.56,52,106.63Z" fill="#fcf6b0"/></g><g id="Group_155" data-name="Group 155"><path id="Path_171" data-name="Path 171" d="M51.59,106.24a10.21,10.21,0,0,0,5.33-.56,15.77,15.77,0,0,0,4.7-2.79,38,38,0,0,0,4.28-4.41c.67-.78,1.33-1.57,2-2.35s1.27-1.43,2-2.09a7.78,7.78,0,0,1,4.4-2.41,4.56,4.56,0,0,1,.64,0,.27.27,0,0,0,0-.54,7.22,7.22,0,0,0-4.73,2,21.22,21.22,0,0,0-2,2c-.69.76-1.35,1.54-2,2.32A50.27,50.27,0,0,1,62,101.84a16.72,16.72,0,0,1-4.54,3,10.43,10.43,0,0,1-5.13.93l-.66-.1a.28.28,0,0,0-.31.23A.27.27,0,0,0,51.59,106.24Z" fill="#fcf6b0"/></g><g id="Group_156" data-name="Group 156"><path id="Path_172" data-name="Path 172" d="M73.8,92.66a16.18,16.18,0,0,0-6.09-.85,18.55,18.55,0,0,0-5.92,1.31,22.18,22.18,0,0,0-5,2.83,26.67,26.67,0,0,0-2.25,1.88,14.67,14.67,0,0,0-2,2.21,6.78,6.78,0,0,0-.74,1.31,4.81,4.81,0,0,0-.33,1.18,5.83,5.83,0,0,0,.09,2.56,2.82,2.82,0,0,0,.19.51.28.28,0,0,0,.35.15.27.27,0,0,0,.15-.34,4.28,4.28,0,0,1-.32-2.24,6.06,6.06,0,0,1,.21-1.19,3.94,3.94,0,0,1,.18-.48,5.89,5.89,0,0,1,.34-.66,11,11,0,0,1,1.89-2.26,24.48,24.48,0,0,1,2.11-1.83,22.45,22.45,0,0,1,4.79-2.89A18.16,18.16,0,0,1,67,92.4a15.58,15.58,0,0,1,5.88.53c.23.06.45.14.68.22a.27.27,0,0,0,.23-.49Z" fill="#fcf6b0"/></g><g id="Group_157" data-name="Group 157"><path id="Path_173" data-name="Path 173" d="M51.61,104.13a27.23,27.23,0,0,1,3-3.64,26.66,26.66,0,0,1,3.46-2.91,32.53,32.53,0,0,1,3.93-2.37c.71-.36,1.43-.7,2.16-1a22.52,22.52,0,0,1,2.36-.91,7,7,0,0,1,4.88,0,6,6,0,0,1,.56.3.27.27,0,0,0,.23-.49,6.62,6.62,0,0,0-5.09-.48,16.49,16.49,0,0,0-2.48.85c-.75.32-1.49.66-2.22,1a35.21,35.21,0,0,0-4.12,2.38,26.93,26.93,0,0,0-6.77,6.49l-.36.5a.29.29,0,0,0,0,.38A.28.28,0,0,0,51.61,104.13Z" fill="#fcf6b0"/></g><g id="Group_158" data-name="Group 158"><path id="Path_174" data-name="Path 174" d="M80.27,97.46a17.62,17.62,0,0,0,5.53,1.33,18.33,18.33,0,0,0,5.67-.47,17.56,17.56,0,0,0,5.23-2.24,25.48,25.48,0,0,0,4.49-3.74c1.37-1.4,2.62-2.9,3.84-4.42l.45-.56c.22-.27-.19-.62-.4-.35-1.22,1.51-2.44,3-3.77,4.43a26.74,26.74,0,0,1-4.26,3.76,17.5,17.5,0,0,1-5,2.42,17.83,17.83,0,0,1-5.49.68,17.08,17.08,0,0,1-5.37-1.06L80.5,97a.27.27,0,0,0-.23.48Z" fill="#fcf6b0"/></g><g id="Group_159" data-name="Group 159"><path id="Path_175" data-name="Path 175" d="M80.05,96.37a18.43,18.43,0,0,0,10.9-1,26.74,26.74,0,0,0,4.39-2.48C96.69,92,98,91,99.45,90.25a11.78,11.78,0,0,1,4.35-1.49l.59,0a.26.26,0,0,0,.23-.3.27.27,0,0,0-.28-.24,11.44,11.44,0,0,0-4.53,1.28A37.16,37.16,0,0,0,95.67,92,33.49,33.49,0,0,1,91.5,94.5a17.86,17.86,0,0,1-5.25,1.56A17.66,17.66,0,0,1,80.82,96c-.23,0-.45-.08-.68-.13S79.71,96.3,80.05,96.37Z" fill="#fcf6b0"/></g><g id="Group_160" data-name="Group 160"><path id="Path_176" data-name="Path 176" d="M80.45,96.64A8.36,8.36,0,0,0,85.17,96c1.56-.62,3-1.41,4.67-1.88a19.27,19.27,0,0,1,5.29-.7,46.63,46.63,0,0,1,5.41.34,18.59,18.59,0,0,0,2.58.14,8.06,8.06,0,0,0,2.44-.47l.6-.25a.26.26,0,0,0,.16-.34.27.27,0,0,0-.35-.16,7.38,7.38,0,0,1-2.36.64,12,12,0,0,1-2.47,0c-1.8-.18-3.6-.37-5.41-.39a21.29,21.29,0,0,0-5.34.53,15.4,15.4,0,0,0-2.46.81c-.76.31-1.51.66-2.28,1a9.43,9.43,0,0,1-4.53,1,5.81,5.81,0,0,1-.58-.09C80.2,96,80.11,96.57,80.45,96.64Z" fill="#fcf6b0"/></g><g id="Group_161" data-name="Group 161"><path id="Path_177" data-name="Path 177" d="M56.53,115.92a12.2,12.2,0,0,0,5.39-.67,15,15,0,0,0,4.74-2.72,20.21,20.21,0,0,0,3.87-4.43,32.67,32.67,0,0,0,2.75-5.28c.7-1.66,1.54-3.66,3.44-4.17a2.9,2.9,0,0,1,.59-.09.27.27,0,0,0,.25-.29.28.28,0,0,0-.29-.25h0a3.85,3.85,0,0,0-2.4,1.1,7.45,7.45,0,0,0-1.63,2.46c-.41.91-.78,1.84-1.21,2.75s-.89,1.77-1.4,2.62A21.31,21.31,0,0,1,67,111.52a15,15,0,0,1-4.54,3,12.05,12.05,0,0,1-5.17,1l-.67,0a.27.27,0,0,0-.31.21A.28.28,0,0,0,56.53,115.92Z" fill="#fcf6b0"/></g><g id="Group_162" data-name="Group 162"><path id="Path_178" data-name="Path 178" d="M53.29,111.27c1.71,1.39,3.56,2.84,5.82,3.1a10.82,10.82,0,0,0,6.19-1.53,19.16,19.16,0,0,0,4.86-3.72A27.06,27.06,0,0,0,73.75,104a29,29,0,0,1,3.46-5.17c.17-.19.34-.37.52-.55a.26.26,0,0,0,0-.37.27.27,0,0,0-.38,0,23,23,0,0,0-3.6,5,34.22,34.22,0,0,1-3.36,5.12,18.34,18.34,0,0,1-4.56,3.86A11.8,11.8,0,0,1,60,113.88a6.66,6.66,0,0,1-3-.71,14.91,14.91,0,0,1-2.72-1.8l-.62-.5c-.27-.22-.62.19-.35.4Z" fill="#fcf6b0"/></g><g id="Group_163" data-name="Group 163"><path id="Path_179" data-name="Path 179" d="M80.81,106a14.33,14.33,0,0,1-2.57,5A16,16,0,0,1,74,114.7a15.18,15.18,0,0,1-5.23,2,14.34,14.34,0,0,1-2.85.2,21.22,21.22,0,0,1-3-.35,41,41,0,0,1-6.25-1.61l-.64-.23a.28.28,0,0,0-.36.12.27.27,0,0,0,.13.36,40.92,40.92,0,0,0,6.26,1.75,19,19,0,0,0,6.1.39,15.59,15.59,0,0,0,5.54-1.82,16.46,16.46,0,0,0,4.52-3.66,15,15,0,0,0,2.89-5c.08-.24.15-.49.22-.73a.27.27,0,0,0-.22-.31.28.28,0,0,0-.31.22Z" fill="#fcf6b0"/></g><g id="Group_164" data-name="Group 164"><path id="Path_180" data-name="Path 180" d="M56.56,116.09c2.18,1.28,4.52,2.61,7.11,2.66a9.45,9.45,0,0,0,6-2.42,32.25,32.25,0,0,0,2.52-2.3c.93-.91,1.84-1.84,2.72-2.8s1.74-1.9,2.55-2.89a14.57,14.57,0,0,0,2-3,7.71,7.71,0,0,0,.57-1.74,12.31,12.31,0,0,0,.17-1.81,11,11,0,0,1,.41-3.48,4.17,4.17,0,0,1,.37-.73.28.28,0,0,0,0-.38.27.27,0,0,0-.37,0,6.61,6.61,0,0,0-.87,3.43,14.41,14.41,0,0,1-.37,3.53,10.29,10.29,0,0,1-1.66,3c-.75,1-1.58,1.92-2.42,2.85s-1.75,1.9-2.66,2.82-1.64,1.65-2.51,2.41a10.58,10.58,0,0,1-5.51,2.89c-2.49.29-4.86-.89-7-2.1l-.8-.46a.27.27,0,0,0-.36.12A.28.28,0,0,0,56.56,116.09Z" fill="#fcf6b0"/></g><g id="Group_165" data-name="Group 165"><path id="Path_181" data-name="Path 181" d="M55.16,113.81c2.27,0,4.39,1,6.53,1.69a11.76,11.76,0,0,0,3.26.58,6.5,6.5,0,0,0,3.15-.74,12,12,0,0,0,4.53-5c.62-1.1,1.19-2.23,1.83-3.31s1.32-2.1,2-3.15A14.77,14.77,0,0,0,79,97.18c0-.3,0-.6,0-.9a.26.26,0,0,0-.29-.24.27.27,0,0,0-.24.29A12.42,12.42,0,0,1,76.35,103c-.62,1.06-1.29,2.08-1.93,3.12s-1.24,2.14-1.83,3.23a13.55,13.55,0,0,1-4.16,5.22,6.16,6.16,0,0,1-2.87,1,9.33,9.33,0,0,1-3.15-.38c-2.16-.58-4.22-1.58-6.46-1.82q-.42,0-.84-.06a.27.27,0,0,0,0,.54Z" fill="#fcf6b0"/></g><g id="Group_166" data-name="Group 166"><path id="Path_182" data-name="Path 182" d="M73.27,88.15a20,20,0,0,0,5-5.75,25.76,25.76,0,0,1,4.62-5.76,7.9,7.9,0,0,1,6.35-2.14,10.15,10.15,0,0,1,3.84,1.82c1.24.87,2.46,1.8,3.67,2.72s2.46,1.91,3.68,2.89a22.89,22.89,0,0,1,3.15,2.83,9.36,9.36,0,0,1,.62.79.27.27,0,0,0,.38,0,.25.25,0,0,0,.06-.35,15.38,15.38,0,0,0-3-3c-1.2-1-2.42-2-3.65-2.9s-2.5-1.91-3.78-2.85a14.92,14.92,0,0,0-3.8-2.21,6.76,6.76,0,0,0-3.7-.22,9.18,9.18,0,0,0-3.26,1.48A14.84,14.84,0,0,0,80.78,78a30.94,30.94,0,0,0-2.26,3.09,26,26,0,0,1-4.79,6c-.25.2-.5.39-.76.57a.27.27,0,0,0,0,.38A.25.25,0,0,0,73.27,88.15Z" fill="#fcf6b0"/></g><g id="Group_167" data-name="Group 167"><path id="Path_183" data-name="Path 183" d="M74.17,88.38a13.3,13.3,0,0,0,4.59-3.74,36.33,36.33,0,0,1,4-4.39,8.91,8.91,0,0,1,2.41-1.47,7.74,7.74,0,0,1,3.57-.43,18.12,18.12,0,0,1,7.18,2.85c2.36,1.41,4.74,3,7.46,3.57a8.58,8.58,0,0,0,1,.18c.34,0,.44-.48.09-.53-2.77-.37-5.22-1.84-7.58-3.26A22.35,22.35,0,0,0,89.68,78a8.86,8.86,0,0,0-3.8,0,8.31,8.31,0,0,0-2.77,1.31A24,24,0,0,0,79,83.58a15.94,15.94,0,0,1-4.35,4c-.2.11-.4.21-.61.3S73.86,88.52,74.17,88.38Z" fill="#fcf6b0"/></g><g id="Group_168" data-name="Group 168"><path id="Path_184" data-name="Path 184" d="M104.49,85.17a28.32,28.32,0,0,0-5.57-.86,19.65,19.65,0,0,0-5.38.77c-1.85.47-3.68,1-5.52,1.51l-5.61,1.55L76.8,89.69l-.7.2a.26.26,0,0,0-.16.34.28.28,0,0,0,.35.16l5.58-1.54,5.56-1.54L93,85.79a22.52,22.52,0,0,1,5.27-.94,22.63,22.63,0,0,1,5.49.69l.69.16c.33.08.43-.45.09-.53Z" fill="#fcf6b0"/></g><g id="Group_169" data-name="Group 169"><path id="Path_185" data-name="Path 185" d="M83.05,104.91a21.19,21.19,0,0,0,6.65-.1,32.39,32.39,0,0,0,6.4-1.8,22.26,22.26,0,0,0,5.39-2.85,12,12,0,0,0,3.87-4.65,8.94,8.94,0,0,0,.62-5.87c-.07-.24-.14-.47-.23-.7a.26.26,0,0,0-.35-.14.26.26,0,0,0-.15.33,7.92,7.92,0,0,1-.14,5.59,11.08,11.08,0,0,1-3.44,4.62,20,20,0,0,1-5.17,2.94,34.1,34.1,0,0,1-6.1,1.86,21.63,21.63,0,0,1-6.47.35l-.79-.11a.26.26,0,0,0-.3.23A.27.27,0,0,0,83.05,104.91Z" fill="#fcf6b0"/></g><g id="Group_170" data-name="Group 170"><path id="Path_186" data-name="Path 186" d="M82.87,103.49c2.14-.11,4.27-.22,6.39-.5a27,27,0,0,0,6.14-1.5,16.52,16.52,0,0,0,4.71-2.79,12.58,12.58,0,0,0,3.32-4.26,12.27,12.27,0,0,0,.86-2.86,20,20,0,0,1,.7-3.18,5.13,5.13,0,0,1,.33-.76.27.27,0,0,0-.49-.23c-1,1.92-.87,4.17-1.62,6.15a11.56,11.56,0,0,1-3,4.31,15.77,15.77,0,0,1-4.47,2.88,23.65,23.65,0,0,1-5.9,1.6,62.87,62.87,0,0,1-6.28.57l-.78,0a.27.27,0,0,0,.05.53Z" fill="#fcf6b0"/></g><g id="Group_171" data-name="Group 171"><path id="Path_187" data-name="Path 187" d="M81.69,101l6.83-.22,3.41-.1c1.09,0,2.18-.06,3.26-.12a13.5,13.5,0,0,0,3-.49,8.57,8.57,0,0,0,2.4-1.2,11,11,0,0,0,3.41-4.1,17.81,17.81,0,0,0,1.6-6.17c0-.27.05-.53.06-.8a.28.28,0,0,0-.21-.31.28.28,0,0,0-.32.22,18.81,18.81,0,0,1-1.3,6.12,10.85,10.85,0,0,1-3.1,4.26,8.44,8.44,0,0,1-2.17,1.28,10.21,10.21,0,0,1-2.89.61c-1,.09-2.08.11-3.12.14l-3.38.11-6.74.21-.82,0a.27.27,0,0,0-.25.29A.28.28,0,0,0,81.69,101Z" fill="#fcf6b0"/></g><g id="Group_172" data-name="Group 172"><path id="Path_188" data-name="Path 188" d="M81.77,99.8a34.73,34.73,0,0,0,16.81-4.11c.86-.46,1.69-1,2.51-1.49.41-.26.81-.54,1.2-.82a12.11,12.11,0,0,0,1.2-.94,3,3,0,0,0,.73-1.08c.11-.33.21-.67.29-1s.18-.76.29-1.14a2.58,2.58,0,0,1,.08-.26s0,0,0,0l0-.06a.65.65,0,0,1,0-.13,3,3,0,0,1,.2-.45.93.93,0,0,1,0-.1s0-.06,0,0,0,0,0,0l.12-.15a.26.26,0,0,0,0-.37.26.26,0,0,0-.38,0h0a2.46,2.46,0,0,0-.46.8,11,11,0,0,0-.33,1.12c-.1.37-.18.74-.28,1.1,0,.08,0,.16-.07.25l0,.09c0,.07,0-.05,0,0l0,.06a2.11,2.11,0,0,1-.21.46,3.88,3.88,0,0,1-1,1l-1.18.85c-.8.54-1.61,1-2.44,1.51a33.88,33.88,0,0,1-5.24,2.39,34.8,34.8,0,0,1-5.52,1.47,33.39,33.39,0,0,1-5.74.52h-.71a.27.27,0,1,0,.06.54Z" fill="#fcf6b0"/></g><g id="Group_173" data-name="Group 173"><path id="Path_189" data-name="Path 189" d="M80.26,108.6a2.37,2.37,0,0,0,2.39-.93,3.25,3.25,0,0,0,.68-2.63,6.27,6.27,0,0,0-1.45-2.77c-.66-.81-1.37-1.57-2-2.37A27.2,27.2,0,0,1,78,97.36a13.11,13.11,0,0,1-.8-1.36c.07.14,0,0,0-.07l-.08-.17c-.06-.12-.12-.24-.17-.36s-.22-.49-.32-.74a12.14,12.14,0,0,1-.47-1.48A1.33,1.33,0,0,1,76,93s0,.12,0,0l0-.11c0-.12-.06-.25-.08-.38s-.09-.49-.14-.74a5,5,0,0,0-1.45-2.9A3.56,3.56,0,0,0,68.88,90a3.83,3.83,0,0,0-.29.73.54.54,0,0,0,1.06.19s0-.14,0,0a.14.14,0,0,0,0-.06l.06-.15a3.18,3.18,0,0,1,.16-.32s.13-.17,0-.05a1.13,1.13,0,0,0,.1-.13,2.43,2.43,0,0,1,.2-.25l.11-.12a.46.46,0,0,0,.07-.07c.05,0,0,0,0,0a.69.69,0,0,0,.13-.11.91.91,0,0,1,.16-.11,2.53,2.53,0,0,1,.27-.18s.07,0,0,0l.09,0,.15-.07.31-.1.09,0s0,0,0,0a1.38,1.38,0,0,0,.2,0,1.84,1.84,0,0,1,.33,0h.07c.05,0,.13,0,0,0h.17l.33,0,.16,0,.1,0-.07,0,.06,0a3.64,3.64,0,0,1,.63.3c.06,0-.12-.08,0,0l0,0,.14.1a3.2,3.2,0,0,1,.27.25l.05,0-.05,0,.05,0a1.47,1.47,0,0,1,.1.13,3.28,3.28,0,0,1,.2.31l0,.07c0,.09,0,0,0,0s.06.13.08.16a3.84,3.84,0,0,1,.14.36,5,5,0,0,1,.2.69.29.29,0,0,1,0,.09c0-.12,0-.07,0,0l0,.17c0,.13.06.26.08.39s.09.48.14.72a14,14,0,0,0,.42,1.54,18.65,18.65,0,0,0,3.06,5.31c.62.79,1.28,1.55,1.95,2.31.32.36.64.72.93,1.11.14.19.28.38.4.57l.18.3v0h0v0l0,.06c0,.07.06.13.08.19a3.07,3.07,0,0,1,.23.64s0,.09,0,.1,0-.13,0,0l0,.17c0,.11,0,.23,0,.34a.66.66,0,0,0,0,.14v0a2.89,2.89,0,0,1,0,.29l0,.14s-.07.2,0,0a2.49,2.49,0,0,1-.11.29,2,2,0,0,1-.13.25s-.09.15,0,.06,0,0,0,0l0,.07a1.84,1.84,0,0,1-.17.22l-.1.09,0,0s.1-.09,0,0l-.21.16-.11.06s-.1,0,0,0l-.07,0a1.17,1.17,0,0,1-.24.09l-.08,0H81l-.15,0h-.18c.17,0,.09,0,0,0l-.26,0a.53.53,0,0,0-.62.43A.55.55,0,0,0,80.26,108.6Z" fill="#fcf6b0"/></g><g id="Group_174" data-name="Group 174"><path id="Path_190" data-name="Path 190" d="M82.26,104.42a23.42,23.42,0,0,1,4.56.72,8.77,8.77,0,0,1,2,.87,8.15,8.15,0,0,1,1.67,1.36,40.86,40.86,0,0,1,2.7,3.44,44,44,0,0,0,2.87,3.39,24.13,24.13,0,0,0,6.86,5.27,15.57,15.57,0,0,0,7.44,1.61c2.46-.09,5.29-.49,7.23-2,.25-.2.39-.41.62-.63s-.14-.79-.29-.92-.78-.33-.94-.18a9.93,9.93,0,0,1-6,2.92,14.51,14.51,0,0,1-7.12-1.23A22.6,22.6,0,0,1,97,114a40.74,40.74,0,0,1-2.79-3.22c-.9-1.14-1.72-2.36-2.67-3.46a10.13,10.13,0,0,0-1.6-1.54,8.93,8.93,0,0,0-2-1.1,17.07,17.07,0,0,0-4.47-1l-1.12-.1a.4.4,0,0,0-.46.32A.41.41,0,0,0,82.26,104.42Z" fill="#fcf6b0"/></g><g id="Group_175" data-name="Group 175"><path id="Path_191" data-name="Path 191" d="M53.16,111.26a25.48,25.48,0,0,1,3.38.49c1.05.22,2.1.48,3.15.72a26.39,26.39,0,0,0,6.19.79,12.88,12.88,0,0,0,5.43-1.17,9,9,0,0,0,2.33-1.59,11.47,11.47,0,0,0,1.81-2.3c.52-.83,1-1.68,1.5-2.51l.18-.31.09-.14c.07-.1,0,0,0,0l.06-.09c.13-.2.27-.4.41-.59a9.75,9.75,0,0,1,.92-1.1l.24-.23s.08-.08,0,0l0,0,.14-.12a.41.41,0,0,0,.09-.56.4.4,0,0,0-.56-.1,17.27,17.27,0,0,0-3.43,4.72c-.12.21-.25.42-.38.62l-.18.29c0-.06,0,0,0,0l0,.08-.11.15a10.84,10.84,0,0,1-.87,1.15c-.15.18-.32.35-.48.51L73,110l0,0s0,0,0,0l-.26.23a7.68,7.68,0,0,1-1.12.77l-.27.15h0l-.07,0-.16.08c-.2.1-.41.19-.62.27a9.58,9.58,0,0,1-1.28.42l-.32.09c-.07,0,.09,0,0,0l-.07,0-.19,0-.69.11a12.36,12.36,0,0,1-1.35.14c-.47,0-.94,0-1.41,0h-.25l-.36,0-.69,0a29.37,29.37,0,0,1-3.25-.54c-2.12-.45-4.2-1-6.36-1.28l-.87-.08a.4.4,0,1,0-.14.79Z" fill="#fcf6b0"/></g><g id="Group_176" data-name="Group 176"><path id="Path_192" data-name="Path 192" d="M52,104.57a44,44,0,0,0,4.28-2.9,44,44,0,0,0,4-3.37l.93-.9c.16-.16.31-.31.47-.45l.24-.23.06,0h0l.13-.12a13.07,13.07,0,0,1,1-.82,6.18,6.18,0,0,1,.53-.36l.26-.16.13-.08.07,0,.05,0a9.63,9.63,0,0,1,1.19-.5l.62-.19.32-.08.07,0c.07,0,0,0,0,0l.17,0a21.12,21.12,0,0,1,2.62-.35q3-.24,5.92-.22h.74a.4.4,0,0,0,.36-.44.41.41,0,0,0-.44-.36q-3,0-6,.16a16.68,16.68,0,0,0-5.28,1,14,14,0,0,0-4.24,3.2l-.92.88-.22.21-.06,0h0l-.13.12-.47.41c-.67.58-1.35,1.14-2,1.68a49.68,49.68,0,0,1-4.31,3l-.51.3a.39.39,0,0,0-.1.56.41.41,0,0,0,.56.1Z" fill="#fcf6b0"/></g><g id="Group_177" data-name="Group 177"><path id="Path_193" data-name="Path 193" d="M76.33,89.35a34.83,34.83,0,0,0,12.29-3.54c1.87-.94,3.65-2,5.61-2.76.49-.19,1-.36,1.49-.51a12.12,12.12,0,0,1,1.33-.29,9.48,9.48,0,0,1,1.3-.1h.58q.33,0,.66.06a7.73,7.73,0,0,1,1.27.26l.15,0s.08,0,0,0l.07,0,.31.11.58.26a5.86,5.86,0,0,1,.55.3l.07,0,.12.08.27.2a5.87,5.87,0,0,1,.46.41l.12.11.06.07a2.31,2.31,0,0,1,.2.24,4.67,4.67,0,0,1,.36.51.4.4,0,0,0,.66-.46,6.65,6.65,0,0,0-4.33-2.85,10.65,10.65,0,0,0-5.54.37,20.31,20.31,0,0,0-2.9,1.19c-1,.46-1.91,1-2.82,1.46a36.74,36.74,0,0,1-5.93,2.51,32.79,32.79,0,0,1-6.27,1.37q-.41.06-.81.09a.41.41,0,0,0-.36.44.4.4,0,0,0,.44.36Z" fill="#fcf6b0"/></g><g id="Group_178" data-name="Group 178"><path id="Path_194" data-name="Path 194" d="M82.2,100l5.9.3,5.88.31a14.13,14.13,0,0,0,2.76-.06,7.15,7.15,0,0,0,2.46-.86,11.34,11.34,0,0,0,2-1.52A18.18,18.18,0,0,0,103,96.28a19.5,19.5,0,0,0,2.77-4.45c.09-.2.17-.4.25-.6a.39.39,0,0,0-.19-.53.4.4,0,0,0-.54.19h0a19.53,19.53,0,0,1-1.12,2.3l-.33.56a2.13,2.13,0,0,0-.16.25s0,0,0,0l0,.06-.1.15q-.36.54-.75,1a20.42,20.42,0,0,1-1.69,1.91l-.44.42,0,.05c0-.05,0,0,0,0a.52.52,0,0,1-.11.1l-.23.21c-.31.25-.63.5-1,.72-.17.11-.34.22-.52.32l-.12.07-.07,0c-.05,0,0,0,0,0l-.28.14a6.71,6.71,0,0,1-1.14.4c-.07,0,0,0,0,0l-.08,0-.15,0-.34,0c-.22,0-.43.05-.65.06-.44,0-.89,0-1.34,0H94l-.72,0-1.45-.08-2.9-.15-5.84-.3-.71,0a.41.41,0,1,0-.14.8Z" fill="#fcf6b0"/></g><g id="Group_179" data-name="Group 179"><path id="Path_195" data-name="Path 195" d="M74.6,89.16l5.71-5.69c.89-.88,1.76-1.77,2.66-2.63a17.38,17.38,0,0,1,2.53-2.08,8.53,8.53,0,0,1,3-1.28,11.6,11.6,0,0,1,1.76-.22,16.26,16.26,0,0,1,1.71,0,22.54,22.54,0,0,1,3.57.49A11.4,11.4,0,0,1,98.89,79c.21.12.41.25.61.39a7,7,0,0,1,.6.48c.19.17.37.34.54.52l0,0,.06.06.12.14.23.3a5.39,5.39,0,0,1,.43.63l.08.14,0,.09s0,.08,0,0a3.59,3.59,0,0,1,.17.34,5.13,5.13,0,0,1,.25.69c0,.05,0,.11,0,.17s0,.06,0,.09,0,.08,0,0c0,.13,0,.26.07.39a5.52,5.52,0,0,1,.05.71.4.4,0,0,0,.8-.07,6.91,6.91,0,0,0-3-5.32,14.16,14.16,0,0,0-7-2.29,17.42,17.42,0,0,0-3.68-.06,9.44,9.44,0,0,0-3.47,1,23.86,23.86,0,0,0-5.39,4.54l-5.83,5.8-.72.73a.39.39,0,0,0,0,.56.42.42,0,0,0,.57,0Z" fill="#fcf6b0"/></g></g></svg>