<svg id="Layer_1" data-name="Layer 1" xmlns="http://www.w3.org/2000/svg" viewBox="0 30 575 480"><defs><style>.cls-1,.cls-10,.cls-11,.cls-12,.cls-13,.cls-14,.cls-15,.cls-16,.cls-2,.cls-3,.cls-4,.cls-5,.cls-7,.cls-8,.cls-9{fill:#fcf6b0;stroke:#f0eca1;}.cls-1,.cls-12,.cls-17,.cls-23,.cls-28,.cls-7{stroke-miterlimit:4;}.cls-1{stroke-width:2.46px;}.cls-13,.cls-18,.cls-2,.cls-24,.cls-29,.cls-8{stroke-miterlimit:4;}.cls-2{stroke-width:2.46px;}.cls-14,.cls-19,.cls-25,.cls-3,.cls-30,.cls-9{stroke-miterlimit:4;}.cls-3{stroke-width:2.46px;}.cls-10,.cls-15,.cls-20,.cls-26,.cls-31,.cls-4{stroke-miterlimit:4;}.cls-4{stroke-width:2.46px;}.cls-11,.cls-16,.cls-21,.cls-27,.cls-32,.cls-5{stroke-miterlimit:4;}.cls-5{stroke-width:2.46px;}.cls-6{fill:#f0eca1;}.cls-7{stroke-width:0.87px;}.cls-8{stroke-width:0.87px;}.cls-9{stroke-width:0.87px;}.cls-10{stroke-width:0.87px;}.cls-11{stroke-width:0.87px;}.cls-12{stroke-width:1.03px;}.cls-13{stroke-width:1.03px;}.cls-14{stroke-width:1.03px;}.cls-15{stroke-width:1.03px;}.cls-16{stroke-width:1.03px;}.cls-17,.cls-18,.cls-19,.cls-20,.cls-21,.cls-23,.cls-24,.cls-25,.cls-26,.cls-27{fill:#c7e7dd;stroke:#b3ded0;}.cls-17{stroke-width:1.19px;}.cls-18{stroke-width:1.19px;}.cls-19{stroke-width:1.19px;}.cls-20{stroke-width:1.19px;}.cls-21{stroke-width:1.19px;}.cls-22{fill:#b3ded0;}.cls-23{stroke-width:1.99px;}.cls-24{stroke-width:1.99px;}.cls-25{stroke-width:1.99px;}.cls-26{stroke-width:1.99px;}.cls-27{stroke-width:1.99px;}.cls-28,.cls-29,.cls-30,.cls-31,.cls-32{fill:#d3def1;stroke:#b3c5e6;}.cls-28{stroke-width:1.55px;}.cls-29{stroke-width:1.55px;}.cls-30{stroke-width:1.55px;}.cls-31{stroke-width:1.55px;}.cls-32{stroke-width:1.55px;}.cls-33{fill:#b3c5e6;}</style></defs><g id="Group_491" data-name="Group 491"><path id="Path_355-15" data-name="Path 355-15" class="cls-1" d="M118.73,139s.29-75.17,42.09-52.64-25.65,61.75-25.65,61.75Z"/><path id="Path_359-15" data-name="Path 359-15" class="cls-1" d="M81.77,205.69s-63.58,40.07-22.34,63.59S98.21,214.8,98.21,214.8Z"/><path id="Path_356-15" data-name="Path 356-15" class="cls-2" d="M136.6,149.9s45.27-59.78,66.57-17.34S147.44,172,147.44,172Z"/><path id="Path_361-15" data-name="Path 361-15" class="cls-3" d="M150,171.82s72-21.7,62.65,24.86-68.88-.29-68.88-.29Z"/><path id="Path_363-15" data-name="Path 363-15" class="cls-3" d="M93,140.2S73.27,67.69,38.71,100.26s38.38,56.8,38.38,56.8Z"/><path id="Path_362-15" data-name="Path 362-15" class="cls-4" d="M143.63,198.41s70.56,26,35.09,57.57-49.28-45.23-49.28-45.23Z"/><path id="Path_364-15" data-name="Path 364-15" class="cls-5" d="M73.8,159.71s-59.4-46.05-67.4.75S70,182.07,70,182.07Z"/><path id="Path_358-15" data-name="Path 358-15" class="cls-2" d="M101.44,216.38S73.81,285.13,121.1,280.7s6-68.21,6-68.21Z"/><path id="Path_357-15" data-name="Path 357-15" class="cls-2" d="M116.29,139.21s29.08-69.31-18.21-64.9S95,141.36,95,141.36Z"/><path id="Path_360-15" data-name="Path 360-15" class="cls-2" d="M80.7,203.51s-43.39,61.4-64.69,19,56.45-35.86,56.45-35.86Z"/><path id="Path_365-3" data-name="Path 365-3" class="cls-6" d="M130,141.33a40.82,40.82,0,1,1-55.48,15.91h0A40.81,40.81,0,0,1,130,141.33Z"/></g><g id="Group_494" data-name="Group 494"><path id="Path_355-17" data-name="Path 355-17" class="cls-7" d="M234.59,300.77s.1-26.66,14.93-18.67-9.1,21.9-9.1,21.9Z"/><path id="Path_359-17" data-name="Path 359-17" class="cls-7" d="M221.49,324.41s-22.55,14.21-7.92,22.55,13.75-19.32,13.75-19.32Z"/><path id="Path_356-17" data-name="Path 356-17" class="cls-8" d="M240.93,304.63s16.05-21.2,23.6-6.15-19.76,14-19.76,14Z"/><path id="Path_361-17" data-name="Path 361-17" class="cls-9" d="M245.69,312.4s25.52-7.69,22.21,8.82-24.42-.11-24.42-.11Z"/><path id="Path_363-17" data-name="Path 363-17" class="cls-9" d="M225.46,301.19s-7-25.71-19.24-14.16,13.61,20.14,13.61,20.14Z"/><path id="Path_362-17" data-name="Path 362-17" class="cls-10" d="M243.42,321.83s25,9.21,12.44,20.41-17.47-16-17.47-16Z"/><path id="Path_364-17" data-name="Path 364-17" class="cls-11" d="M218.66,308.11s-21.06-16.33-23.9.27S217.31,316,217.31,316Z"/><path id="Path_358-17" data-name="Path 358-17" class="cls-8" d="M228.46,328.2s-9.8,24.38,7,22.81,2.12-24.19,2.12-24.19Z"/><path id="Path_357-17" data-name="Path 357-17" class="cls-8" d="M233.73,300.84s10.31-24.58-6.46-23-1.11,23.77-1.11,23.77Z"/><path id="Path_360-17" data-name="Path 360-17" class="cls-8" d="M221.11,323.64s-15.39,21.77-22.94,6.72,20-12.71,20-12.71Z"/><path id="Path_365-5" data-name="Path 365-5" class="cls-6" d="M238.59,301.59a14.47,14.47,0,1,1-19.68,5.64h0A14.49,14.49,0,0,1,238.59,301.59Z"/></g><g id="Group_494-2" data-name="Group 494"><path id="Path_355-17-2" data-name="Path 355-17" class="cls-12" d="M458,82.72s.12-31.34,17.55-21.95-10.69,25.75-10.69,25.75Z"/><path id="Path_359-17-2" data-name="Path 359-17" class="cls-12" d="M442.57,110.52s-26.51,16.71-9.31,26.52,16.17-22.72,16.17-22.72Z"/><path id="Path_356-17-2" data-name="Path 356-17" class="cls-13" d="M465.43,87.26S484.31,62.34,493.19,80,470,96.48,470,96.48Z"/><path id="Path_361-17-2" data-name="Path 361-17" class="cls-14" d="M471,96.4s30-9,26.12,10.37-28.72-.13-28.72-.13Z"/><path id="Path_363-17-2" data-name="Path 363-17" class="cls-14" d="M447.24,83.22S439,53,424.62,66.56s16,23.69,16,23.69Z"/><path id="Path_362-17-2" data-name="Path 362-17" class="cls-15" d="M468.36,107.49s29.42,10.83,14.63,24-20.54-18.86-20.54-18.86Z"/><path id="Path_364-17-2" data-name="Path 364-17" class="cls-16" d="M439.25,91.35s-24.77-19.2-28.1.32,26.51,9,26.51,9Z"/><path id="Path_358-17-2" data-name="Path 358-17" class="cls-13" d="M450.77,115s-11.52,28.67,8.2,26.82,2.49-28.44,2.49-28.44Z"/><path id="Path_357-17-2" data-name="Path 357-17" class="cls-13" d="M457,82.81s12.13-28.9-7.59-27.06-1.3,28-1.3,28Z"/><path id="Path_360-17-2" data-name="Path 360-17" class="cls-13" d="M442.12,109.61s-18.09,25.6-27,7.91,23.54-15,23.54-15Z"/><path id="Path_365-5-2" data-name="Path 365-5" class="cls-6" d="M462.68,83.69a17,17,0,1,1-23.13,6.63h0A17,17,0,0,1,462.68,83.69Z"/></g><g id="Group_510" data-name="Group 510"><path id="Path_355-29" data-name="Path 355-29" class="cls-17" d="M282,77.76s.12-30.12,16.87-21.09-10.27,24.75-10.27,24.75Z"/><path id="Path_359-29" data-name="Path 359-29" class="cls-17" d="M267.17,104.5s-25.49,16.06-9,25.48,15.55-21.83,15.55-21.83Z"/><path id="Path_356-29" data-name="Path 356-29" class="cls-18" d="M289.14,82.14s18.15-24,26.69-7S293.49,91,293.49,91Z"/><path id="Path_361-29" data-name="Path 361-29" class="cls-19" d="M294.53,90.92s28.84-8.69,25.11,10-27.61-.12-27.61-.12Z"/><path id="Path_363-29" data-name="Path 363-29" class="cls-19" d="M271.66,78.25s-7.91-29.07-21.75-16S265.29,85,265.29,85Z"/><path id="Path_362-29" data-name="Path 362-29" class="cls-20" d="M292,101.58S320.24,112,306,124.65s-19.76-18.11-19.76-18.11Z"/><path id="Path_364-29" data-name="Path 364-29" class="cls-21" d="M264,86.06s-23.81-18.45-27,.31S262.44,95,262.44,95Z"/><path id="Path_358-29" data-name="Path 358-29" class="cls-18" d="M275.05,108.79s-11.07,27.56,7.88,25.78,2.4-27.35,2.4-27.35Z"/><path id="Path_357-29" data-name="Path 357-29" class="cls-18" d="M281,77.85s11.66-27.78-7.29-26-1.26,26.87-1.26,26.87Z"/><path id="Path_360-29" data-name="Path 360-29" class="cls-18" d="M266.73,103.63s-17.39,24.6-25.93,7.59,22.62-14.37,22.62-14.37Z"/><path id="Path_365-15" data-name="Path 365-15" class="cls-22" d="M286.5,78.7a16.36,16.36,0,1,1-22.24,6.38h0A16.36,16.36,0,0,1,286.5,78.7Z"/></g><g id="Group_510-2" data-name="Group 510"><path id="Path_355-29-2" data-name="Path 355-29" class="cls-17" d="M526.5,274.24s.11-30.13,16.87-21.1-10.27,24.75-10.27,24.75Z"/><path id="Path_359-29-2" data-name="Path 359-29" class="cls-17" d="M511.68,301s-25.49,16.06-8.95,25.48,15.55-21.82,15.55-21.82Z"/><path id="Path_356-29-2" data-name="Path 356-29" class="cls-18" d="M533.66,278.61s18.14-24,26.68-6.95S538,287.47,538,287.47Z"/><path id="Path_361-29-2" data-name="Path 361-29" class="cls-19" d="M539,287.4s28.85-8.7,25.11,10-27.6-.11-27.6-.11Z"/><path id="Path_363-29-2" data-name="Path 363-29" class="cls-19" d="M516.17,274.72s-7.91-29.07-21.75-16,15.39,22.77,15.39,22.77Z"/><path id="Path_362-29-2" data-name="Path 362-29" class="cls-20" d="M536.48,298.06s28.28,10.41,14.06,23.07S530.79,303,530.79,303Z"/><path id="Path_364-29-2" data-name="Path 364-29" class="cls-21" d="M508.48,282.54s-23.81-18.46-27,.3S507,291.5,507,291.5Z"/><path id="Path_358-29-2" data-name="Path 358-29" class="cls-18" d="M519.56,305.26s-11.07,27.56,7.88,25.78,2.4-27.34,2.4-27.34Z"/><path id="Path_357-29-2" data-name="Path 357-29" class="cls-18" d="M525.52,274.33s11.65-27.79-7.3-26S517,275.19,517,275.19Z"/><path id="Path_360-29-2" data-name="Path 360-29" class="cls-18" d="M511.24,300.1s-17.38,24.61-25.92,7.6,22.62-14.38,22.62-14.38Z"/><path id="Path_365-15-2" data-name="Path 365-15" class="cls-22" d="M531,275.18a16.36,16.36,0,1,1-22.24,6.37h0A16.36,16.36,0,0,1,531,275.18Z"/></g><g id="Group_510-3" data-name="Group 510"><path id="Path_355-29-3" data-name="Path 355-29" class="cls-23" d="M364,393.94s.19-50.42,28.23-35.31S375,400.05,375,400.05Z"/><path id="Path_359-29-3" data-name="Path 359-29" class="cls-23" d="M339.16,438.68s-42.66,26.88-15,42.65,26-36.53,26-36.53Z"/><path id="Path_356-29-3" data-name="Path 356-29" class="cls-24" d="M375.94,401.25s30.37-40.1,44.66-11.63-37.38,26.46-37.38,26.46Z"/><path id="Path_361-29-3" data-name="Path 361-29" class="cls-25" d="M385,416s48.28-14.56,42,16.67-46.19-.19-46.19-.19Z"/><path id="Path_363-29-3" data-name="Path 363-29" class="cls-25" d="M346.68,394.74S333.44,346.09,310.27,368,336,406.05,336,406.05Z"/><path id="Path_362-29-3" data-name="Path 362-29" class="cls-26" d="M380.66,433.8S428,451.22,404.2,472.41s-33.06-30.32-33.06-30.32Z"/><path id="Path_364-29-3" data-name="Path 364-29" class="cls-27" d="M333.81,407.83s-39.85-30.89-45.2.51,42.64,14.49,42.64,14.49Z"/><path id="Path_358-29-3" data-name="Path 358-29" class="cls-24" d="M352.35,445.86S333.82,492,365.54,489s4-45.76,4-45.76Z"/><path id="Path_357-29-3" data-name="Path 357-29" class="cls-24" d="M362.32,394.08s19.5-46.5-12.21-43.53-2.1,45-2.1,45Z"/><path id="Path_360-29-3" data-name="Path 360-29" class="cls-24" d="M338.43,437.22S309.33,478.4,295,449.93s37.86-24.06,37.86-24.06Z"/><path id="Path_365-15-3" data-name="Path 365-15" class="cls-22" d="M371.52,395.51a27.38,27.38,0,1,1-37.23,10.67h0A27.38,27.38,0,0,1,371.52,395.51Z"/></g><g id="Group_521" data-name="Group 521"><path id="Path_355-34" data-name="Path 355-34" class="cls-28" d="M364,206.86s.18-47.36,26.51-33.17-16.16,38.91-16.16,38.91Z"/><path id="Path_359-34" data-name="Path 359-34" class="cls-28" d="M340.69,248.86s-40.06,25.24-14.08,40.06S351,254.6,351,254.6Z"/><path id="Path_356-34" data-name="Path 356-34" class="cls-29" d="M375.22,213.71s28.52-37.65,41.94-10.92-35.11,24.85-35.11,24.85Z"/><path id="Path_361-34" data-name="Path 361-34" class="cls-30" d="M383.68,227.52s45.33-13.66,39.46,15.66-43.39-.18-43.39-.18Z"/><path id="Path_363-34" data-name="Path 363-34" class="cls-30" d="M347.74,207.6s-12.41-45.67-34.18-25.15,24.18,35.78,24.18,35.78Z"/><path id="Path_362-34" data-name="Path 362-34" class="cls-31" d="M379.65,244.27s44.45,16.37,22.1,36.27-31-28.5-31-28.5Z"/><path id="Path_364-34" data-name="Path 364-34" class="cls-32" d="M335.66,219.89s-37.42-29-42.45.48S333.26,234,333.26,234Z"/><path id="Path_358-34" data-name="Path 358-34" class="cls-29" d="M353.07,255.59s-17.4,43.31,12.39,40.52,3.77-43,3.77-43Z"/><path id="Path_357-34" data-name="Path 357-34" class="cls-29" d="M362.43,207S380.74,163.32,351,166.1s-2,42.24-2,42.24Z"/><path id="Path_360-34" data-name="Path 360-34" class="cls-29" d="M340,247.49s-27.33,38.67-40.75,11.94,35.56-22.59,35.56-22.59Z"/><path id="Path_365-20" data-name="Path 365-20" class="cls-33" d="M371.07,208.32a25.71,25.71,0,1,1-34.95,10h0A25.71,25.71,0,0,1,371.07,208.32Z"/></g><g id="Group_521-2" data-name="Group 521"><path id="Path_355-34-2" data-name="Path 355-34" class="cls-28" d="M104,405.27s.18-47.35,26.51-33.16S114.32,411,114.32,411Z"/><path id="Path_359-34-2" data-name="Path 359-34" class="cls-28" d="M80.69,447.27s-40.06,25.24-14.07,40.06S91,453,91,453Z"/><path id="Path_356-34-2" data-name="Path 356-34" class="cls-29" d="M115.22,412.13s28.52-37.66,41.94-10.92-35.11,24.84-35.11,24.84Z"/><path id="Path_361-34-2" data-name="Path 361-34" class="cls-30" d="M123.68,425.94S169,412.27,163.14,441.6s-43.39-.19-43.39-.19Z"/><path id="Path_363-34-2" data-name="Path 363-34" class="cls-30" d="M87.75,406s-12.42-45.67-34.19-25.16,24.18,35.78,24.18,35.78Z"/><path id="Path_362-34-2" data-name="Path 362-34" class="cls-31" d="M119.65,442.69s44.45,16.36,22.1,36.26-31-28.49-31-28.49Z"/><path id="Path_364-34-2" data-name="Path 364-34" class="cls-32" d="M75.66,418.31s-37.41-29-42.45.47,40.05,13.61,40.05,13.61Z"/><path id="Path_358-34-2" data-name="Path 358-34" class="cls-29" d="M93.07,454s-17.4,43.31,12.39,40.51,3.77-43,3.77-43Z"/><path id="Path_357-34-2" data-name="Path 357-34" class="cls-29" d="M102.43,405.4S120.75,361.74,91,364.51s-2,42.24-2,42.24Z"/><path id="Path_360-34-2" data-name="Path 360-34" class="cls-29" d="M80,445.9s-27.33,38.68-40.75,11.94,35.56-22.59,35.56-22.59Z"/><path id="Path_365-20-2" data-name="Path 365-20" class="cls-33" d="M111.07,406.73a25.71,25.71,0,1,1-34.95,10h0A25.71,25.71,0,0,1,111.07,406.73Z"/></g></svg>